<svg xmlns="http://www.w3.org/2000/svg" width="700" height="136.33" viewBox="0 0 593.047 115.5" style="background-color:#fff"><defs><style>.root text,.root tspan{font:12px Arial}.root circle,.root path{stroke-width:2px;stroke:#000}.root path{fill-opacity:0}.root circle{fill:#6b6659}.literal text{fill:#000}.literal rect{fill:#dae9e5}.charset .charset-box{fill:#cbcbba}.charset .charset-label tspan{font-size:10px;dominant-baseline:text-after-edge}</style></defs><g transform="translate(15 10)" class="root"><g class="regexp match"><path d="M93.344 58.75h50m114.687 0h75"/><g class="match-fragment"><path d="M20 58.75q-10 0-10 10v6.75q0 10 10 10h73.344q10 0 10-10v-6.75q0-10-10-10m10 15l5-5m-5 5l-5-5"/><g class="charset" transform="translate(20 31)"><rect rx="3" ry="3" class="charset-box" transform="translate(0 11)" width="73.344" height="33.5"/><text transform="translate(0 11)" class="charset-label"><tspan>One of:</tspan></text><g class="charset-range"><text transform="translate(34.672 32)">-</text><g class="literal"><g class="label" transform="translate(5 16)"><rect width="24.672" height="23.5" rx="3" ry="3"/><text transform="translate(5 16.75)"><tspan> 0</tspan></text></g></g><g class="literal"><g class="label" transform="translate(43.672 16)"><rect width="24.672" height="23.5" rx="3" ry="3"/><text transform="translate(5 16.75)"><tspan> 9</tspan></text></g></g></g></g></g><g class="match-fragment"><path d="M118.344 58.75q10 0 10-10V10q0-10 10-10H278.03q10 0 10 10v38.75q0 10 10 10"/><g class="subexp"><g class="regexp match"><path d="M164.688 58.75h20"/><g class="match-fragment literal"><g class="label" transform="translate(143.344 47)"><rect width="21.344" height="23.5" rx="3" ry="3"/><text transform="translate(5 16.75)"><tspan style="font-weight:700"> .</tspan></text></g></g><g class="match-fragment"><path d="M184.688 58.75q-10 0-10 10v6.75q0 10 10 10h73.343q10 0 10-10v-6.75q0-10-10-10m10 15l5-5m-5 5l-5-5"/><g class="charset" transform="translate(184.688 31)"><rect rx="3" ry="3" class="charset-box" transform="translate(0 11)" width="73.344" height="33.5"/><text transform="translate(0 11)" class="charset-label"><tspan>One of:</tspan></text><g class="charset-range"><text transform="translate(34.672 32)">-</text><g class="literal"><g class="label" transform="translate(5 16)"><rect width="24.672" height="23.5" rx="3" ry="3"/><text transform="translate(5 16.75)"><tspan> 0</tspan></text></g></g><g class="literal"><g class="label" transform="translate(43.672 16)"><rect width="24.672" height="23.5" rx="3" ry="3"/><text transform="translate(5 16.75)"><tspan> 9</tspan></text></g></g></g></g></g></g></g></g><g class="match-fragment"><path d="M308.031 58.75q10 0 10-10V10q0-10 10-10h205.016q10 0 10 10v38.75q0 10 10 10"/><g class="subexp"><g class="regexp match"><path d="M357.703 58.75h25m22 0h35"/><g class="match-fragment literal"><g class="label" transform="translate(333.031 47)"><rect width="24.672" height="23.5" rx="3" ry="3"/><text transform="translate(5 16.75)"><tspan> e</tspan></text></g></g><g class="match-fragment"><path d="M367.703 58.75q10 0 10-10V47q0-10 10-10h12q10 0 10 10v1.75q0 10 10 10"/><g class="literal"><g class="label" transform="translate(382.703 47)"><rect width="22" height="23.5" rx="3" ry="3"/><text transform="translate(5 16.75)"><tspan style="font-weight:700"> -</tspan></text></g></g></g><g class="match-fragment"><path d="M439.703 58.75q-10 0-10 10v6.75q0 10 10 10h73.344q10 0 10-10v-6.75q0-10-10-10m10 15l5-5m-5 5l-5-5"/><g class="charset" transform="translate(439.703 31)"><rect rx="3" ry="3" class="charset-box" transform="translate(0 11)" width="73.344" height="33.5"/><text transform="translate(0 11)" class="charset-label"><tspan>One of:</tspan></text><g class="charset-range"><text transform="translate(34.672 32)">-</text><g class="literal"><g class="label" transform="translate(5 16)"><rect width="24.672" height="23.5" rx="3" ry="3"/><text transform="translate(5 16.75)"><tspan> 0</tspan></text></g></g><g class="literal"><g class="label" transform="translate(43.672 16)"><rect width="24.672" height="23.5" rx="3" ry="3"/><text transform="translate(5 16.75)"><tspan> 9</tspan></text></g></g></g></g></g></g></g></g></g><path d="M20 58.75H0m513.047 0h50"/><circle cy="58.75" r="5"/><circle cx="563.047" cy="58.75" r="5"/></g></svg>