<?xml version="1.0" encoding="utf-8"?>
<!DOCTYPE svg PUBLIC "-//W3C//DTD SVG 1.1//EN" "http://www.w3.org/Graphics/SVG/1.1/DTD/svg11.dtd">
<svg version="1.1" xmlns="http://www.w3.org/2000/svg" xmlns:xlink="http://www.w3.org/1999/xlink" width="16" height="16" viewBox="0 0 16 16">
<path fill="#000000" d="M13.5 0h-12c-0.825 0-1.5 0.675-1.5 1.5v13c0 0.825 0.675 1.5 1.5 1.5h12c0.825 0 1.5-0.675 1.5-1.5v-13c0-0.825-0.675-1.5-1.5-1.5zM13.5 14.5h-12v-13h12v13z
M6.1 9.736l-.386.42s-.358.39-.725.781c-.12.129-.226.24-.336.354l-.715-1.148-.848.529 1.237 1.984.353-.088c.135-.033.147-.06.172-.078a1.662 1.662 0 00.14-.117c.057-.053.122-.12.198-.197a52.59 52.59 0 00.875-.926l1.19 1.42 1.455-1.168 1.4.73 1.12-.58.267.213.62-.783-.775-.615-1.232.638-1.518-.793-1.2.965z
M5.5 6.607l-1.14.963-.282-.799-.943.334.764 2.163 1.644-1.39.899.66 1.197-.544.654.344.465-.885-1.086-.57-1.111.502z
M6.1 2.736l-.386.42s-.358.39-.725.781c-.12.129-.226.24-.336.354l-.715-1.148-.848.529 1.237 1.984.353-.088c.135-.033.147-.06.172-.078a1.662 1.662 0 00.14-.117c.057-.053.122-.12.198-.197a52.59 52.59 0 00.875-.926l1.19 1.42 1.455-1.168 1.4.73 1.12-.58.267.213.62-.783-.775-.615-1.232.638-1.518-.793-1.2.965z"></path>
</svg>
