<svg xmlns="http://www.w3.org/2000/svg" height="182.413" width="287.335"><path d="M68.077 6.683v166.299M12.329 1.615v166.299M64.826 6.387v166.3M15.58 1.91v166.3M71.856 45.852h101.292M71.856 108.214h95.055M71.856 48.725H172.86M71.856 105.342H167.2M71.856 119.553v-85.04M71.856 34.514h-3.78M68.077 34.514v85.04M68.077 119.553h3.78M.045.498l83.15 7.559M.045 166.797l83.15 7.56M173.904 38.293l-7.56 75.59M204.14 174.356l83.15 7.56M223.982 119.553h45.355M269.337 119.553v-85.04M269.337 34.514h-45.355M223.982 34.514v85.04M259.415 40.183a2.362 2.362 0 10-4.724 0 2.362 2.362 0 104.724 0zM259.415 113.884a2.362 2.362 0 10-4.724 0 2.362 2.362 0 104.724 0zM238.628 113.884a2.362 2.362 0 10-4.724 0 2.362 2.362 0 104.724 0zM259.415 54.356a2.362 2.362 0 10-4.724 0 2.362 2.362 0 104.724 0zM259.415 99.71a2.362 2.362 0 10-4.724 0 2.362 2.362 0 104.724 0zM238.628 99.71a2.362 2.362 0 10-4.724 0 2.362 2.362 0 104.724 0z" fill="none" stroke="#000000"/><path d="M238.628 40.183a2.362 2.362 0 00-4.724 0 2.362 2.362 0 004.724 0zM238.628 54.356a2.362 2.362 0 00-4.724 0 2.362 2.362 0 004.724 0zM259.415 40.183a2.362 2.362 0 00-4.724 0 2.362 2.362 0 004.724 0zM259.415 54.356a2.362 2.362 0 00-4.724 0 2.362 2.362 0 004.724 0zM238.628 113.884a2.362 2.362 0 00-4.724 0 2.362 2.362 0 004.724 0zM238.628 99.71a2.362 2.362 0 00-4.724 0 2.362 2.362 0 004.724 0zM259.415 113.884a2.362 2.362 0 00-4.724 0 2.362 2.362 0 004.724 0zM259.415 99.71a2.362 2.362 0 00-4.724 0 2.362 2.362 0 004.724 0z" fill="#000000"/><path d="M211.699.498l68.031 7.559M71.856 38.293h-7.03M71.856 52.466h-7.03M71.856 97.783h-7.03M71.856 111.956h-7.03M71.856 42.073h-7.03M71.856 56.246h-7.03M71.856 101.563h-7.03M71.856 115.736h-7.03M64.826 38.293v3.78M64.826 52.466v3.78M64.826 97.783v3.78M64.826 111.956v3.78M71.856 38.293v3.78M71.856 52.466v3.78M71.856 97.783v3.78M71.856 111.956v3.78" fill="none" stroke="#000000"/><path d="M64.826 38.293v3.78h7.03v-3.78zM64.826 97.783v3.78h7.03v-3.78zM71.856 52.466v3.78h-7.03v-3.78zM71.856 111.956v3.78h-7.03v-3.78z" fill="#000000"/><path d="M64.826 45.852H15.58M64.826 48.725H15.58M64.826 105.342H15.58M64.826 108.214H15.58" fill="none" stroke="#000000"/><g fill="none" stroke="#000000" stroke-dasharray="8,4"><path d="M245.715 4.277v41.575M245.715 108.214v69.922M247.604 4.487v41.365M247.604 108.214v69.922"/></g><g fill="none" stroke="#000"><path d="M-340.112 544.75h19.464v2.872h-15.335a3.27 3.27 0 00-3.27 3.27v50.078a3.27 3.27 0 003.27 3.27h15.335v2.872h-38.929v-2.872h15.336a3.27 3.27 0 003.269-3.27v-50.078a3.27 3.27 0 00-3.27-3.27h-15.335v-2.872h19.465M246.66 45.852h19.464v2.873h-15.335a3.27 3.27 0 00-3.27 3.269v50.079a3.27 3.27 0 003.27 3.269h15.335v2.872h-38.93v-2.872h15.336a3.27 3.27 0 003.27-3.27V51.995a3.27 3.27 0 00-3.27-3.27h-15.335v-2.872h19.464"/></g><g fill="none" stroke="#000000"><path d="M219.258 1.338V175.73M274.061 7.427v173.286"/></g></svg>