<svg xmlns="http://www.w3.org/2000/svg" width="353.766" height="178.5" style="background-color:#fff"><defs><style>.root text,.root tspan{font:12px Arial}.root circle,.root path{stroke-width:2px;stroke:#000}.root path{fill-opacity:0}.root circle{fill:#6b6659}.literal text{fill:#000}.literal rect{fill:#dae9e5}</style></defs><g class="root" transform="translate(15 10)"><g class="regexp match"><path d="M66.695 84.75h10m76.032 0h10m75.007 0h-30"/><g class="match-fragment literal"><g class="label" transform="translate(10 73)"><rect width="56.695" height="23.5" rx="3" ry="3"/><text transform="translate(5 16.75)"><tspan> expect </tspan></text></g></g><g class="match-fragment subexp regexp match literal"><g class="label" transform="translate(76.695 73)"><rect width="76.031" height="23.5" rx="3" ry="3"/><text transform="translate(5 16.75)"><tspan style="font-style:italic"> expression</tspan></text></g></g><g class="match-fragment charset" transform="translate(162.727)"><rect width="65.008" height="147.5" class="charset-box" rx="3" ry="3" style="fill:#cbcbba" transform="translate(0 11)"/><text class="charset-label" transform="translate(15 11)"><tspan style="font-size:10px;dominant-baseline:text-after-edge">One of:</tspan></text><g class="literal"><g class="label" transform="translate(5 16)"><rect width="25.008" height="23.5" rx="3" ry="3"/><text transform="translate(5 16.75)"><tspan> =</tspan></text></g></g><g class="literal"><g class="label" transform="translate(5.21 44.5)"><rect width="24.586" height="23.5" rx="3" ry="3"/><text transform="translate(5 16.75)"><tspan> &lt;</tspan></text></g></g><g class="literal"><g class="label" transform="translate(5 73)"><rect width="25.008" height="23.5" rx="3" ry="3"/><text transform="translate(5 16.75)"><tspan> ≤</tspan></text></g></g><g class="literal"><g class="label" transform="translate(5 101.5)"><rect width="25.008" height="23.5" rx="3" ry="3"/><text transform="translate(5 16.75)"><tspan> ∈</tspan></text></g></g><g class="literal"><g class="label" transform="translate(5.21 130)"><rect width="24.586" height="23.5" rx="3" ry="3"/><text transform="translate(5 16.75)"><tspan> ⊆</tspan></text></g></g><g class="literal"><g class="label" transform="translate(35 16)"><rect width="25.008" height="23.5" rx="3" ry="3"/><text transform="translate(5 16.75)"><tspan> ≠</tspan></text></g></g><g class="literal"><g class="label" transform="translate(35.21 44.5)"><rect width="24.586" height="23.5" rx="3" ry="3"/><text transform="translate(5 16.75)"><tspan> &gt;</tspan></text></g></g><g class="literal"><g class="label" transform="translate(35 73)"><rect width="25.008" height="23.5" rx="3" ry="3"/><text transform="translate(5 16.75)"><tspan> ≥</tspan></text></g></g><g class="literal"><g class="label" transform="translate(35 101.5)"><rect width="25.008" height="23.5" rx="3" ry="3"/><text transform="translate(5 16.75)"><tspan> ∉</tspan></text></g></g><g class="literal"><g class="label" transform="translate(35.21 130)"><rect width="24.586" height="23.5" rx="3" ry="3"/><text transform="translate(5 16.75)"><tspan> ⊈</tspan></text></g></g></g><g class="match-fragment subexp regexp match literal"><g class="label" transform="translate(237.734 73)"><rect width="76.031" height="23.5" rx="3" ry="3"/><text transform="translate(5 16.75)"><tspan style="font-style:italic"> expression</tspan></text></g></g></g><path d="M10 84.75H0m313.766 0h10"/><circle cy="84.75" r="5"/><circle cx="323.766" cy="84.75" r="5"/></g></svg>