<svg xmlns="http://www.w3.org/2000/svg" width="549.7308" height="132.6" viewBox="0 0 458.109 110.5" style="background-color:#fff"><defs><style>.root text,.root tspan{font:12px Arial}.root circle,.root path{stroke-width:2px;stroke:#000}.root path{fill-opacity:0}.root circle{fill:#6b6659}.literal text{fill:#000}.literal rect{fill:#dae9e5}</style></defs><g transform="translate(15 10)" class="root"><g class="regexp match"><path d="M42 45.25h10m95.375 0h10m27.344 0h10"/><g class="match-fragment literal"><g class="label" transform="translate(10 33.5)"><rect width="32" height="23.5" rx="3" ry="3"/><text transform="translate(5 16.75)"><tspan> for</tspan></text></g></g><g class="match-fragment subexp regexp match literal"><g class="label" transform="translate(52 33.5)"><rect width="95.375" height="23.5" rx="3" ry="3"/><text transform="translate(5 16.75)"><tspan style="font-style:italic"> index variable</tspan></text></g></g><g class="match-fragment literal"><g class="label" transform="translate(157.375 33.5)"><rect width="27.344" height="23.5" rx="3" ry="3"/><text transform="translate(5 16.75)"><tspan> in</tspan></text></g></g><g class="match-fragment subexp regexp"><path d="M204.719 31.75q0-10 10-10m193.39 10q0-10-10-10m-203.39 23.5c10 0 10 5 20 5m203.39-5c-10 0-10 5-20 5m-193.39 18.5q0 10 10 10m193.39-10q0 10-10 10m-203.39-33.5q10 0 10-10v-3.5m213.39 13.5q-10 0-10-10v-3.5m-213.39 13.5q10 0 10 10v13.5m213.39-23.5q-10 0-10 10v13.5"/><g class="regexp-matches"><path d="M214.719 50.25h66.36m50.671 0h66.36m-183.391 28.5h68.023m47.344 0h68.023"/><g class="match"><path d="M256.063 21.75h25m47.359 0h25"/><g class="match-fragment literal"><g class="label" transform="translate(214.719 10)"><rect width="41.344" height="23.5" rx="3" ry="3"/><text transform="translate(5 16.75)"><tspan style="font-style:italic"> start</tspan></text></g></g><g class="match-fragment"><path d="M266.063 21.75q10 0 10-10V10q0-10 10-10h37.359q10 0 10 10v1.75q0 10 10 10"/><g class="subexp regexp match match-fragment literal"><g class="label" transform="translate(281.063 10)"><rect width="47.359" height="23.5" rx="3" ry="3"/><text transform="translate(5 16.75)"><tspan style="font-weight:700">: </tspan><tspan style="font-style:italic">step</tspan></text></g></g></g><g class="match-fragment literal"><g class="label" transform="translate(353.422 10)"><rect width="44.688" height="23.5" rx="3" ry="3"/><text transform="translate(5 16.75)"><tspan style="font-style:italic"> : end</tspan></text></g></g></g><g class="match match-fragment literal"><g class="label" transform="translate(281.078 38.5)"><rect width="50.672" height="23.5" rx="3" ry="3"/><text transform="translate(5 16.75)"><tspan style="font-style:italic"> matrix</tspan></text></g></g><g class="match match-fragment literal"><g class="label" transform="translate(282.742 67)"><rect width="47.344" height="23.5" rx="3" ry="3"/><text transform="translate(5 16.75)"><tspan style="font-style:italic"> string</tspan></text></g></g></g></g></g><path d="M10 45.25H0m418.11 0h10"/><circle cy="45.25" r="5"/><circle cx="428.109" cy="45.25" r="5"/></g></svg>