<svg xmlns="http://www.w3.org/2000/svg" width="486.5064‬" height="88.2" viewBox="0 0 405.422 73.5" style="background-color:#fff"><defs><style>.root text,.root tspan{font:12px Arial}.root circle,.root path{stroke-width:2px;stroke:#000}.root path{fill-opacity:0}.root circle{fill:#6b6659}.literal text{fill:#000}.literal rect{fill:#dae9e5}</style></defs><g transform="translate(15 10)" class="root"><g class="regexp match"><path d="M70.031 31.75h10m96.032 0h25m102.359 0h40"/><g class="match-fragment subexp regexp match literal"><g class="label" transform="translate(10 20)"><rect width="60.031" height="23.5" rx="3" ry="3"/><text transform="translate(5 16.75)"><tspan> function</tspan></text></g></g><g class="match-fragment subexp regexp match literal"><g class="label" transform="translate(80.031 20)"><rect width="96.031" height="23.5" rx="3" ry="3"/><text transform="translate(5 16.75)"><tspan style="font-style:italic"> functionName</tspan><tspan>(</tspan></text></g></g><g class="match-fragment subexp regexp match"><path d="M186.063 31.75q10 0 10-10V10q0-10 10-10h107.359q10 0 10 10v11.75q0 10 10 10"/><g class="subexp regexp match"><path d="M236.406 31.75h25"/><g class="match-fragment literal"><g class="label" transform="translate(201.063 20)"><rect width="35.344" height="23.5" rx="3" ry="3"/><text transform="translate(5 16.75)"><tspan style="font-style:italic"> arg</tspan></text></g></g><g class="match-fragment"><path d="M246.406 31.75q10 0 10-10V20q0-10 10-10h32.016q10 0 10 10v1.75q0 10 10 10m-57.016 0q-10 0-10 10v1.75q0 10 10 10h42.016q10 0 10-10v-1.75q0-10-10-10m10 15l5-5m-5 5l-5-5"/><g class="subexp regexp match match-fragment literal"><g class="label" transform="translate(261.406 20)"><rect width="42.016" height="23.5" rx="3" ry="3"/><text transform="translate(5 16.75)"><tspan style="font-style:italic"> , arg</tspan></text></g></g></g></g></g><g class="match-fragment literal"><g class="label" transform="translate(343.422 20)"><rect width="22" height="23.5" rx="3" ry="3"/><text transform="translate(5 16.75)"><tspan>)</tspan></text></g></g></g><path d="M10 31.75H0m365.422 0h10"/><circle cy="31.75" r="5"/><circle cx="375.422" cy="31.75" r="5"/></g></svg>