<svg xmlns="http://www.w3.org/2000/svg" width="250" height="172.1" viewBox="0 0 191 131.5" style="background-color:#fff"><defs><style>.root text,.root tspan{font:12px Arial}.root circle,.root path{stroke-width:2px;stroke:#000}.root path{fill-opacity:0}.root circle{fill:#6b6659}.literal text{fill:#000}.literal rect{fill:#dae9e5}</style></defs><g transform="translate(15 10)" class="root"><g class="regexp match"><path d="M40.671875 56.25H60.6719"/><g class="match-fragment literal"><g class="label" transform="translate(10 44.5)"><rect width="30.671875" height="23.5" rx="3" ry="3"/><text transform="translate(5 16.75)"><tspan> 0x</tspan></text></g></g><g class="match-fragment"><path d="M60.6719 56.25q-10 0-10 10v35.25q0 10 10 10h75.328125q10 0 10-10V66.25q0-10-10-10m10 15l5-5m-5 5l-5-5"/><g class="charset" transform="translate(60.6719)"><rect rx="3" ry="3" class="charset-box" transform="translate(0 11)" width="75.328125" height="90.5" style="fill:#cbcbba"/><text transform="translate(0 11)" class="charset-label"><tspan style="dominant-baseline:text-after-edge;font-size:10px">One of:</tspan></text><g class="charset-range"><text transform="translate(35.6641 32)">-</text><g class="literal"><g class="label" transform="translate(5.9922 16)"><rect width="24.671875" height="23.5" rx="3" ry="3"/><text transform="translate(5 16.75)"><tspan> 0</tspan></text></g></g><g class="literal"><g class="label" transform="translate(44.6641 16)"><rect width="24.671875" height="23.5" rx="3" ry="3"/><text transform="translate(5 16.75)"><tspan> 9</tspan></text></g></g></g><g class="charset-range"><text transform="translate(36 60.5)">-</text><g class="literal"><g class="label" transform="translate(5 44.5)"><rect width="26" height="23.5" rx="3" ry="3"/><text transform="translate(5 16.75)"><tspan> A</tspan></text></g></g><g class="literal"><g class="label" transform="translate(45 44.5)"><rect width="25.328125" height="23.5" rx="3" ry="3"/><text transform="translate(5 16.75)"><tspan> F</tspan></text></g></g></g><g class="charset-range"><text transform="translate(37.3281 89)">-</text><g class="literal"><g class="label" transform="translate(7.6562 73)"><rect width="24.671875" height="23.5" rx="3" ry="3"/><text transform="translate(5 16.75)"><tspan> a</tspan></text></g></g><g class="literal"><g class="label" transform="translate(46.3281 73)"><rect width="21.34375" height="23.5" rx="3" ry="3"/><text transform="translate(5 16.75)"><tspan> f</tspan></text></g></g></g></g></g></g><path d="M10 56.25H0m136.000025 0h25.000006"/><circle cy="56.25" r="5"/><circle cx="161.000031" cy="56.25" r="5"/></g></svg>