<svg xmlns="http://www.w3.org/2000/svg" width="450" height="93.08" viewBox="0 0 396.438 82" style="background-color:#fff"><defs><style>.root text,.root tspan{font:12px Arial}.root circle,.root path{stroke-width:2px;stroke:#000}.root path{fill-opacity:0}.root circle{fill:#6b6659}.literal text{fill:#000}.literal rect{fill:#dae9e5}</style></defs><g transform="translate(15 10)" class="root"><g class="regexp match"><path d="M32.016 26h20m257.406 0h25"/><g class="match-fragment literal"><g class="label" transform="translate(10 14.25)"><rect width="22.016" height="23.5" rx="3" ry="3"/><text transform="translate(5 16.75)"><tspan> {</tspan></text></g></g><g class="match-fragment"><path d="M52.016 26q-10 0-10 10v16q0 10 10 10h257.406q10 0 10-10V36q0-10-10-10m10 15l5-5m-5 5l-5-5"/><g class="subexp regexp match"><path d="M128.047 26h10"/><g class="match-fragment literal"><g class="label" transform="translate(52.016 14.25)"><rect width="76.031" height="23.5" rx="3" ry="3"/><text transform="translate(5 16.75)"><tspan style="font-style:italic"> expression</tspan></text></g></g><g class="match-fragment subexp regexp"><path d="M138.047 26c10 0 10-14.25 20-14.25M309.422 26c-10 0-10-14.25-20-14.25M138.047 26c10 0 10 14.25 20 14.25M309.422 26c-10 0-10 14.25-20 14.25"/><g class="regexp-matches"><path d="M158.04700000000003 40.25h31.008m69.36 0h31.007"/><g class="match"><path d="M182.047 11.75h10m66.031 0h10"/><g class="match-fragment subexp regexp match literal"><g class="label" transform="translate(158.047)"><rect width="24" height="23.5" rx="3" ry="3"/><text transform="translate(5 16.75)"><tspan> if</tspan></text></g></g><g class="match-fragment literal"><g class="label" transform="translate(192.047)"><rect width="66.031" height="23.5" rx="3" ry="3"/><text transform="translate(5 16.75)"><tspan style="font-style:italic"> condition</tspan></text></g></g><g class="match-fragment subexp regexp match literal"><g class="label" transform="translate(268.078)"><rect width="21.344" height="23.5" rx="3" ry="3"/><text transform="translate(5 16.75)"><tspan style="font-weight:700"> ;</tspan></text></g></g></g><g class="match match-fragment literal"><g class="label" transform="translate(189.055 28.5)"><rect width="69.359" height="23.5" rx="3" ry="3"/><text transform="translate(5 16.75)"><tspan> otherwise</tspan></text></g></g></g></g></g></g><g class="match-fragment literal"><g class="label" transform="translate(334.422 14.25)"><rect width="22.016" height="23.5" rx="3" ry="3"/><text transform="translate(5 16.75)"><tspan> }</tspan></text></g></g></g><path d="M10 26H0m356.438 0h10"/><circle cy="26" r="5"/><circle cx="366.438" cy="26" r="5"/></g></svg>