<svg version="1.1" width="420" height="97.7" viewBox="0 0 330 73.392" xmlns="http://www.w3.org/2000/svg" style="background-color:#fff"><defs><linearGradient><stop offset="0" stop-color="#000" stop-opacity="1"/></linearGradient><style type="text/css">.literal text{fill:#000}.literal rect{fill:#dae9e5}</style></defs><path d="M281.882 61.813h-44.256v0" fill="none" stroke="#000" stroke-width="2" stroke-linecap="butt" stroke-linejoin="miter" stroke-miterlimit="4" stroke-dasharray="none" stroke-opacity="1"/><path d="M37.016 22.75h20m237.406 0h25m69.36 0h10"/><path d="M5 22.75h52.016" fill="none" stroke="#000" stroke-width="2" stroke-linecap="butt" stroke-linejoin="miter" stroke-miterlimit="4" stroke-dasharray="none" stroke-opacity="1"/><path d="M57.016 22.75q-10 0-10-10V11q0-10 10-10h237.406q10 0 10 10v1.75q0 10-10 10m10-15l5 5m-5-5l-5 5" fill="#fff" fill-opacity="1" stroke="#000" stroke-width="2" stroke-miterlimit="4" stroke-dasharray="none" stroke-opacity="1"/><path d="M153.047 34.5v-1.75c0-6.667-3.333-10-10-10m10 15l5-5m-5 5l-5-5" fill="#fff" fill-opacity="1" stroke="#000" stroke-width="2" stroke-miterlimit="4" stroke-dasharray="none" stroke-opacity="1"/><g transform="translate(57.016 11)" class="subexp regexp match"><path d="M76.031 11.75h10m10 0h10m24 0h10m66.032 0h10"/><g class="match-fragment literal"><g class="label"><rect width="76.031" height="23.5" rx="3" ry="3" x="0" y="0"/><text x="0" y="0" transform="translate(5 16.75)" style="line-height:normal" font-style="normal" font-variant="normal" font-weight="400" font-stretch="normal" font-size="12" font-family="Arial"><tspan style="line-height:normal" font-style="italic" font-variant="normal" font-weight="400" font-stretch="normal" font-size="12" font-family="Arial"> expression</tspan></text></g></g><g transform="translate(86.031 11.75)" class="match-fragment subexp regexp match"><g><path d="M0 0h10"/></g></g><g transform="translate(106.031)" class="match-fragment subexp regexp match literal"><g class="label"><rect width="24" height="23.5" rx="3" ry="3" x="0" y="0"/><text x="0" y="0" transform="translate(5 16.75)" style="line-height:normal" font-style="normal" font-variant="normal" font-weight="400" font-stretch="normal" font-size="12" font-family="Arial"><tspan style="line-height:normal" font-style="normal" font-variant="normal" font-weight="400" font-stretch="normal" font-size="12" font-family="Arial"> if</tspan></text></g></g><g transform="translate(140.031)" class="match-fragment literal"><g class="label"><rect width="66.031" height="23.5" rx="3" ry="3" x="0" y="0"/><text x="0" y="0" transform="translate(5 16.75)" style="line-height:normal" font-style="normal" font-variant="normal" font-weight="400" font-stretch="normal" font-size="12" font-family="Arial"><tspan style="line-height:normal" font-style="italic" font-variant="normal" font-weight="400" font-stretch="normal" font-size="12" font-family="Arial"> condition</tspan></text></g></g><g transform="translate(216.063)" class="match-fragment subexp regexp match literal"><g class="label"><rect width="21.344" height="23.5" rx="3" ry="3" x="0" y="0"/><text x="0" y="0" transform="translate(5 16.75)" style="line-height:normal" font-style="normal" font-variant="normal" font-weight="400" font-stretch="normal" font-size="12" font-family="Arial"><tspan style="line-height:normal" font-style="normal" font-variant="normal" font-weight="600" font-stretch="normal" font-size="12" font-family="Arial"> ;</tspan></text></g></g></g><g transform="translate(170.397 49.892)" class="match-fragment subexp regexp match literal"><g class="label"><rect width="69.359" height="23.5" rx="3" ry="3" x="0" y="0"/><text x="0" y="0" transform="translate(5 16.75)" style="line-height:normal" font-style="normal" font-variant="normal" font-weight="400" font-stretch="normal" font-size="12" font-family="Arial"><tspan style="line-height:normal" font-style="normal" font-variant="normal" font-weight="400" font-stretch="normal" font-size="12" font-family="Arial"> otherwise</tspan></text></g></g><g transform="translate(249.757 49.892)" class="match-fragment literal"><g class="label"><rect width="22.016" height="23.5" rx="3" ry="3" x="0" y="0"/><text x="0" y="0" transform="translate(5 16.75)" style="line-height:normal" font-style="normal" font-variant="normal" font-weight="400" font-stretch="normal" font-size="12" font-family="Arial"><tspan style="line-height:normal" font-style="normal" font-variant="normal" font-weight="400" font-stretch="normal" font-size="12" font-family="Arial"> }</tspan></text></g></g><path d="M15 22.75H5m415.797 0h10"/><circle cx="5" cy="22.75" r="5"/><circle cx="281.772" cy="61.642" r="5"/><g class="match-fragment literal" transform="translate(15 11)"><g class="label"><rect width="22.016" height="23.5" rx="3" ry="3" x="0" y="0"/><text x="0" y="0" transform="translate(5 16.75)" style="line-height:normal" font-style="normal" font-variant="normal" font-weight="400" font-stretch="normal" font-size="12" font-family="Arial"><tspan style="line-height:normal" font-style="normal" font-variant="normal" font-weight="400" font-stretch="normal" font-size="12" font-family="Arial"> {</tspan></text></g></g><path d="M133.047 22.75h30v0" fill="none" stroke="#000" stroke-width="2" stroke-linecap="butt" stroke-linejoin="miter" stroke-miterlimit="4" stroke-dasharray="none" stroke-opacity="1"/><path d="M187.047 22.75h10" fill="none" stroke="#000" stroke-width="2" stroke-linecap="butt" stroke-linejoin="miter" stroke-miterlimit="4" stroke-dasharray="none" stroke-opacity="1"/><path d="M263.078 22.75h10" fill="none" stroke="#000" stroke-width="2" stroke-linecap="butt" stroke-linejoin="miter" stroke-miterlimit="4" stroke-dasharray="none" stroke-opacity="1"/><path d="M153.047 37.75v14.951" fill="none" stroke="#000" stroke-width="2" stroke-linecap="butt" stroke-linejoin="miter" stroke-miterlimit="4" stroke-dasharray="none" stroke-opacity="1"/><path d="M153.047 34.5v3.25" fill="none" stroke="#000" stroke-width="2" stroke-linecap="butt" stroke-linejoin="miter" stroke-miterlimit="4" stroke-dasharray="none" stroke-opacity="1"/><path d="M164.797 61.75h-1.75c-6.667 0-10-3.333-10-10" fill="#fff" fill-opacity="1" stroke="#000" stroke-width="2" stroke-miterlimit="4" stroke-dasharray="none" stroke-opacity="1"/><path d="M164.797 61.75l5.59.022" fill="none" stroke="#000" stroke-width="2" stroke-linecap="butt" stroke-linejoin="miter" stroke-miterlimit="4" stroke-dasharray="none" stroke-opacity="1"/></svg>