<svg xmlns="http://www.w3.org/2000/svg" width="750" height="128.68" viewBox="0 0 673.172 115.5" style="background-color:#fff"><defs><style>.root text,.root tspan{font:12px Arial}.root circle,.root path{stroke-width:2px;stroke:#000}.root path{fill-opacity:0}.root circle{fill:#6b6659}.literal text{fill:#000}.literal rect{fill:#dae9e5}</style></defs><g transform="translate(15 10)" class="root"><g class="regexp match"><path d="M32.016 53.75h30m247.406 0h45m76.031 0h25m69.36 0h40m21.343 0h25"/><g class="match-fragment literal"><g class="label" transform="translate(10 42)"><rect width="22.016" height="23.5" rx="3" ry="3"/><text transform="translate(5 16.75)"><tspan> {</tspan></text></g></g><g class="match-fragment"><path d="M52.016 53.75q-10 0-10 10V85.5q0 10 10 10h277.406q10 0 10-10V63.75q0-10-10-10m10 15l5-5m-5 5l-5-5"/><g class="subexp"><g class="regexp match"><path d="M138.047 53.75h20m24 0h20m66.031 0h20"/><g class="match-fragment literal"><g class="label" transform="translate(62.016 42)"><rect width="76.031" height="23.5" rx="3" ry="3"/><text transform="translate(5 16.75)"><tspan style="font-style:italic"> expression</tspan></text></g></g><g class="match-fragment subexp"><g class="regexp match match-fragment literal"><g class="label" transform="translate(158.047 42)"><rect width="24" height="23.5" rx="3" ry="3"/><text transform="translate(5 16.75)"><tspan> if</tspan></text></g></g></g><g class="match-fragment literal"><g class="label" transform="translate(202.047 42)"><rect width="66.031" height="23.5" rx="3" ry="3"/><text transform="translate(5 16.75)"><tspan style="font-style:italic"> condition</tspan></text></g></g><g class="match-fragment subexp"><g class="regexp match match-fragment literal"><g class="label" transform="translate(288.078 42)"><rect width="21.344" height="23.5" rx="3" ry="3"/><text transform="translate(5 16.75)"><tspan style="font-weight:700"> ;</tspan></text></g></g></g></g></g></g><g class="match-fragment literal"><g class="label" transform="translate(354.422 42)"><rect width="76.031" height="23.5" rx="3" ry="3"/><text transform="translate(5 16.75)"><tspan style="font-style:italic"> expression</tspan></text></g></g><g class="match-fragment"><path d="M440.453 53.75q10 0 10-10V42q0-10 10-10h59.36q10 0 10 10v1.75q0 10 10 10"/><g class="subexp regexp match match-fragment literal"><g class="label" transform="translate(455.453 42)"><rect width="69.359" height="23.5" rx="3" ry="3"/><text transform="translate(5 16.75)"><tspan> otherwise</tspan></text></g></g></g><g class="match-fragment"><path d="M549.813 53.75q10 0 10-10V42q0-10 10-10h11.343q10 0 10 10v1.75q0 10 10 10"/><g class="literal"><g class="label" transform="translate(564.813 42)"><rect width="21.344" height="23.5" rx="3" ry="3"/><text transform="translate(5 16.75)"><tspan style="font-weight:700"> ;</tspan></text></g></g></g><g class="match-fragment literal"><g class="label" transform="translate(611.156 42)"><rect width="22.016" height="23.5" rx="3" ry="3"/><text transform="translate(5 16.75)"><tspan> }</tspan></text></g></g></g><path d="M10 53.75H0m633.172 0h10"/><circle cy="53.75" r="5"/><circle cx="643.172" cy="53.75" r="5"/></g></svg>