<svg xmlns="http://www.w3.org/2000/svg" viewBox="0 0 511.247 881.285" height="18" width="18"><path d="M190.028 157.945c16.43-48.954 53.42-96.347 90.062-123.328C316.73 7.637 353.024 1.07 392.542.12c39.522-.949 82.27 3.72 102.958 14.197 20.684 10.476 19.31 26.758 5.604 40.3-13.708 13.542-39.744 24.341-62.734 28.375-22.99 4.033-42.932 1.3-60.886-3.427-17.952-4.726-33.92-11.446-46.358-12.602-12.436-1.154-21.346 3.255-28.362 9.272-7.016 6.016-12.136 13.64-12.326 32.56-.19 18.92 4.55 49.14 8.766 77.193 4.216 28.053 7.904 53.941 12.844 118.142 4.94 64.2 11.132 166.713 16.242 243.227 5.112 76.513 9.14 127.027-7.288 175.982-16.428 48.954-53.312 96.348-89.9 123.33-36.588 26.98-72.88 33.547-112.4 34.496-39.52.95-82.268-3.72-102.954-14.197-20.686-10.476-19.312-26.759-5.604-40.3 13.706-13.542 39.744-24.34 62.732-28.376 22.99-4.033 42.932-1.3 60.886 3.428 17.952 4.726 33.92 11.446 46.358 12.602 12.438 1.154 21.346-3.256 28.364-9.273 7.014-6.015 12.134-13.639 12.324-32.56.192-18.92-4.55-49.138-8.766-77.192-4.214-28.053-7.902-53.942-12.844-118.142-4.94-64.2-11.132-166.713-16.298-243.227-5.162-76.513-9.298-127.028 7.128-175.983z"/></svg>