<svg xmlns="http://www.w3.org/2000/svg" width="230" height="232.2" viewBox="0 0 849.252 857.367"><g fill="none" stroke="#000" stroke-linecap="round"><path d="M83.824 614.405a277.737 160.352 0 00555.474 0M83.824 481.206a361.059 208.457 0 10555.474 0M639.298 160.861a277.737 160.352 0 10-555.474 0 277.737 160.352 0 10555.474 0zM83.824 160.861v453.544M639.298 160.861v453.544M83.824 160.861a277.737 160.352 0 00555.474 0M.502 648.42a361.059 208.457 0 00722.118 0M.502 614.405v34.015M722.62 614.405v34.015"/></g><path d="M722.706 297.199v93.629-93.629 93.629M638.694 297.199h104.421M638.694 390.828h104.421" fill="none" stroke="#000"/><text y="621.0" x="680.0" font-size="48" font-family="Arial" letter-spacing="0" fill="#000" transform="translate(-1.64 -263.644)"><tspan y="621.0" x="680.0">h</tspan></text><path d="M828.842 160.861v453.544M646.385 160.861h202.867M646.385 614.405h202.867" fill="none" stroke="#000"/><text style="line-height:125%" y="651.235" x="780.0" font-size="48" font-family="Arial" fill="#000" transform="translate(-1.64 -263.644)"><tspan y="651.235" x="780.0">H</tspan></text><g><path d="M621.361 160.861a259.8 149.996 0 10-519.6 0 259.8 149.996 0 10519.6 0zM83.824 501.019a277.737 160.352 0 00555.474 0M83.824 387.633a277.737 160.352 0 00555.474 0M83.824 274.247a277.737 160.352 0 00555.474 0" fill="none" stroke="#000" stroke-dasharray="12,12"/><path d="M722.706 297.199l5.313 20H717.44l5.265-20M722.706 390.828l5.199-20h-9.732l4.533 20M828.842 160.861l5.313 20h-10.578l5.265-20M828.842 614.405l5.199-20h-9.731l4.532 20" stroke="#000"/></g></svg>