<svg xmlns="http://www.w3.org/2000/svg" width="16" height="16"><path d="M5.58 3.765h4.84v1.21H5.58zM12.235 5.58h-8.47a.607.607 0 00-.605.605V9.21c0 .333.272.605.605.605H5.58v2.42h4.84v-2.42h1.815a.607.607 0 00.605-.605V6.185a.607.607 0 00-.605-.605zM4.37 7.395a.605.605 0 110-1.21.605.605 0 010 1.21zm5.445 4.235h-3.63V8.605h3.63z M8 0C3.589 0 0 3.589 0 8s3.589 8 8 8 8-3.589 8-8-3.589-8-8-8zm0 1.193A6.798 6.798 0 0114.807 8 6.798 6.798 0 018 14.807 6.798 6.798 0 011.193 8 6.798 6.798 0 018 1.193z M3.354 2.646l-.708.708 10 10 .708-.708z"/></svg>