<svg xmlns="http://www.w3.org/2000/svg" width="675.047" height="216" style="background-color:#fff"><defs><style>.root text,.root tspan{font:12px Arial}.root circle,.root path{stroke-width:2px;stroke:#000}.root path{fill-opacity:0}.root circle{fill:#6b6659}.literal text{fill:#000}.literal rect{fill:#dae9e5}.charset .charset-box{fill:#cbcbba}.charset .charset-label tspan{font-size:10px;dominant-baseline:text-after-edge}.quote{fill:#908c83}</style></defs><g class="root" transform="translate(15 10)"><g class="regexp match"><path d="M47 108.5h35m73.344 0h50"/><g class="match-fragment"><path d="M10 108.5q10 0 10-10v-1.75q0-10 10-10h12q10 0 10 10v1.75q0 10 10 10"/><g class="literal"><g class="label" transform="translate(25 96.75)"><rect width="22" height="23.5" rx="3" ry="3"/><text transform="translate(5 16.75)"><tspan style="font-weight:700"> -</tspan></text></g></g></g><g class="match-fragment"><path d="M82 108.5q-10 0-10 10v6.75q0 10 10 10h73.344q10 0 10-10v-6.75q0-10-10-10m10 15l5-5m-5 5l-5-5"/><g class="charset" transform="translate(82 80.75)"><rect rx="3" ry="3" class="charset-box" transform="translate(0 11)" width="73.344" height="33.5"/><text transform="translate(0 11)" class="charset-label"><tspan>One of:</tspan></text><g class="charset-range"><text transform="translate(34.672 32)">-</text><g class="literal"><g class="label" transform="translate(5 16)"><rect width="24.672" height="23.5" rx="3" ry="3"/><text transform="translate(5 16.75)"><tspan> 0</tspan></text></g></g><g class="literal"><g class="label" transform="translate(43.672 16)"><rect width="24.672" height="23.5" rx="3" ry="3"/><text transform="translate(5 16.75)"><tspan> 9</tspan></text></g></g></g></g></g><g class="match-fragment"><path d="M180.344 108.5q10 0 10-10V10q0-10 10-10h414.703q10 0 10 10v88.5q0 10 10 10"/><g class="subexp"><g class="regexp"><path d="M215.344 78.75q0-10 10-10m374.703 10q0-10-10-10m-374.703 70.5q0 10 10 10m374.703-10q0 10-10 10M205.344 108.5q10 0 10-10V78.75m394.703 29.75q-10 0-10-10V78.75M205.344 108.5q10 0 10 10v20.75m394.703-30.75q-10 0-10 10v20.75"/><g class="regexp-matches"><path d="M560.047 68.75h30m-364.703 80.5h47.664m254.375 0h62.664"/><g class="match"><path d="M246.688 68.75h20m73.343 0h40"/><g class="match-fragment literal"><g class="label" transform="translate(225.344 57)"><rect width="21.344" height="23.5" rx="3" ry="3"/><text transform="translate(5 16.75)"><tspan style="font-weight:700"> .</tspan></text></g></g><g class="match-fragment"><path d="M266.688 68.75q-10 0-10 10v6.75q0 10 10 10h73.343q10 0 10-10v-6.75q0-10-10-10m10 15l5-5m-5 5l-5-5"/><g class="charset" transform="translate(266.688 41)"><rect rx="3" ry="3" class="charset-box" transform="translate(0 11)" width="73.344" height="33.5"/><text transform="translate(0 11)" class="charset-label"><tspan>One of:</tspan></text><g class="charset-range"><text transform="translate(34.672 32)">-</text><g class="literal"><g class="label" transform="translate(5 16)"><rect width="24.672" height="23.5" rx="3" ry="3"/><text transform="translate(5 16.75)"><tspan> 0</tspan></text></g></g><g class="literal"><g class="label" transform="translate(43.672 16)"><rect width="24.672" height="23.5" rx="3" ry="3"/><text transform="translate(5 16.75)"><tspan> 9</tspan></text></g></g></g></g></g><g class="match-fragment"><path d="M365.031 68.75q10 0 10-10V41q0-10 10-10h185.016q10 0 10 10v17.75q0 10 10 10"/><g class="subexp regexp match"><path d="M404.703 68.75h25m22 0h35"/><g class="match-fragment literal"><g class="label" transform="translate(380.031 57)"><rect width="24.672" height="23.5" rx="3" ry="3"/><text transform="translate(5 16.75)"><tspan> e</tspan></text></g></g><g class="match-fragment"><path d="M414.703 68.75q10 0 10-10V57q0-10 10-10h12q10 0 10 10v1.75q0 10 10 10"/><g class="literal"><g class="label" transform="translate(429.703 57)"><rect width="22" height="23.5" rx="3" ry="3"/><text transform="translate(5 16.75)"><tspan style="font-weight:700"> -</tspan></text></g></g></g><g class="match-fragment"><path d="M486.703 68.75q-10 0-10 10v6.75q0 10 10 10h73.344q10 0 10-10v-6.75q0-10-10-10m10 15l5-5m-5 5l-5-5"/><g class="charset" transform="translate(486.703 41)"><rect rx="3" ry="3" class="charset-box" transform="translate(0 11)" width="73.344" height="33.5"/><text transform="translate(0 11)" class="charset-label"><tspan>One of:</tspan></text><g class="charset-range"><text transform="translate(34.672 32)">-</text><g class="literal"><g class="label" transform="translate(5 16)"><rect width="24.672" height="23.5" rx="3" ry="3"/><text transform="translate(5 16.75)"><tspan> 0</tspan></text></g></g><g class="literal"><g class="label" transform="translate(43.672 16)"><rect width="24.672" height="23.5" rx="3" ry="3"/><text transform="translate(5 16.75)"><tspan> 9</tspan></text></g></g></g></g></g></g></g></g><g class="match match-fragment subexp"><g class="regexp match"><path d="M294.352 149.25h20m73.343 0h25m21.344 0h20"/><g class="match-fragment literal"><g class="label" transform="translate(273.008 137.5)"><rect width="21.344" height="23.5" rx="3" ry="3"/><text transform="translate(5 16.75)"><tspan class="quote">“</tspan><tspan> </tspan><tspan class="quote">”</tspan></text></g></g><g class="match-fragment"><path d="M314.352 149.25q-10 0-10 10V166q0 10 10 10h73.343q10 0 10-10v-6.75q0-10-10-10m10 15l5-5m-5 5l-5-5"/><g class="charset" transform="translate(314.352 121.5)"><rect rx="3" ry="3" class="charset-box" transform="translate(0 11)" width="73.344" height="33.5"/><text transform="translate(0 11)" class="charset-label"><tspan>One of:</tspan></text><g class="charset-range"><text transform="translate(34.672 32)">-</text><g class="literal"><g class="label" transform="translate(5 16)"><rect width="24.672" height="23.5" rx="3" ry="3"/><text transform="translate(5 16.75)"><tspan> 0</tspan></text></g></g><g class="literal"><g class="label" transform="translate(43.672 16)"><rect width="24.672" height="23.5" rx="3" ry="3"/><text transform="translate(5 16.75)"><tspan> 9</tspan></text></g></g></g></g></g><g class="match-fragment literal"><g class="label" transform="translate(412.695 137.5)"><rect width="21.344" height="23.5" rx="3" ry="3"/><text transform="translate(5 16.75)"><tspan style="font-weight:700"> /</tspan></text></g></g><g class="match-fragment"><path d="M454.04 149.25q-10 0-10 10V166q0 10 10 10h73.343q10 0 10-10v-6.75q0-10-10-10m10 15l5-5m-5 5l-5-5"/><g class="charset" transform="translate(454.04 121.5)"><rect rx="3" ry="3" class="charset-box" transform="translate(0 11)" width="73.344" height="33.5"/><text transform="translate(0 11)" class="charset-label"><tspan>One of:</tspan></text><g class="charset-range"><text transform="translate(34.672 32)">-</text><g class="literal"><g class="label" transform="translate(5 16)"><rect width="24.672" height="23.5" rx="3" ry="3"/><text transform="translate(5 16.75)"><tspan> 0</tspan></text></g></g><g class="literal"><g class="label" transform="translate(43.672 16)"><rect width="24.672" height="23.5" rx="3" ry="3"/><text transform="translate(5 16.75)"><tspan> 9</tspan></text></g></g></g></g></g></g></g></g></g></g></g></g><path d="M25 108.5H0m610.047 0h35"/><circle cy="108.5" r="5"/><circle cx="645.047" cy="108.5" r="5"/></g></svg>