
          <svg xmlns="http://www.w3.org/2000/svg" xmlns:cc="http://creativecommons.org/ns#" xmlns:rdf="http://www.w3.org/1999/02/22-rdf-syntax-ns#" version="1.1" width="735.047119140625" height="289">
            <defs>
              <style type="text/css">svg {
          background-color: #fff; }
        
        .root text,
        .root tspan {
          font: 12px Arial; }
        
        .root path {
          fill-opacity: 0;
          stroke-width: 2px;
          stroke: #000; }
        
        .root circle {
          fill: #6b6659;
          stroke-width: 2px;
          stroke: #000; }
        
        .anchor text, .any-character text {
          fill: #fff; }
        
        .anchor rect, .any-character rect {
          fill: #6b6659; }
        
        .escape text, .charset-escape text, .literal text {
          fill: #000; }
        
        .escape rect, .charset-escape rect {
          fill: #bada55; }
        
        .literal rect {
          fill: #dae9e5; }
        
        .charset .charset-box {
          fill: #cbcbba; }
        
        .subexp .subexp-label tspan,
        .charset .charset-label tspan,
        .match-fragment .repeat-label tspan {
          font-size: 10px; }
        
        .repeat-label {
          cursor: help; }
        
        .subexp .subexp-label tspan,
        .charset .charset-label tspan {
          dominant-baseline: text-after-edge; }
        
        .subexp .subexp-box {
          stroke: #908c83;
          stroke-dasharray: 6,2;
          stroke-width: 2px;
          fill-opacity: 0; }
        
        .quote {
          fill: #908c83; }
        </style>
            </defs>
            <metadata>
              <rdf:rdf>
                <cc:license rdf:about="http://creativecommons.org/licenses/by/3.0/">
                  <cc:permits rdf:resource="http://creativecommons.org/ns#Reproduction"></cc:permits>
                  <cc:permits rdf:resource="http://creativecommons.org/ns#Distribution"></cc:permits>
                  <cc:requires rdf:resource="http://creativecommons.org/ns#Notice"></cc:requires>
                  <cc:requires rdf:resource="http://creativecommons.org/ns#Attribution"></cc:requires>
                  <cc:permits rdf:resource="http://creativecommons.org/ns#DerivativeWorks"></cc:permits>
                </cc:license>
              </rdf:rdf>
            </metadata>
          <desc>Created with Snap</desc><g transform="matrix(1,0,0,1,15,10)" class="root"><g transform="matrix(1,0,0,1,10,0)" class="regexp match"><path d="M37,134.5H62"></path><g transform="matrix(1,0,0,1,0,112.75)" class="match-fragment"><path d="M0,21.75q10,0 10,-10v-1.75q0,-10 10,-10h12q10,0 10,10v1.75q0,10 10,10"></path><g transform="matrix(1,0,0,1,15,10)" class="literal"><g class="label"><rect width="22" height="23.5" rx="3" ry="3"></rect><text x="0" y="0" transform="matrix(1,0,0,1,5,16.75)"><tspan style="font-weight:700"> -</tspan></text></g></g></g><g transform="matrix(1,0,0,1,62,0)" class="match-fragment subexp regexp"><path d="M10,86.25q0,-10 10,-10M613.047119140625,86.25q0,-10 -10,-10M10,203.75q0,10 10,10M613.047119140625,203.75q0,10 -10,10M0,134.5q10,0 10,-10V86.25M623.047119140625,134.5q-10,0 -10,-10V86.25M0,134.5q10,0 10,10V203.75M623.047119140625,134.5q-10,0 -10,10V203.75"></path><g transform="matrix(1,0,0,1,20,0)" class="regexp-matches"><path d="M0,76.25h10M583.0471081054687,76.25H583.047119140625M0,213.75h221.0235M347.023525,213.75H583.047119140625"></path><g transform="matrix(1,0,0,1,0,0)" class="match"><path d="M83.34378051757812,76.25H108.3438"></path><g transform="matrix(1,0,0,1,0,48.5)" class="match-fragment"><path d="M10,27.75q-10,0 -10,10v6.75q0,10 10,10h73.34378051757812q10,0 10,-10v-6.75q0,-10 -10,-10M93.34378051757812,42.75l5,-5m-5,5l-5,-5"></path><g transform="matrix(1,0,0,1,10,0)" class="charset"><rect rx="3" ry="3" class="charset-box" transform="matrix(1,0,0,1,0,11)" width="73.34377670288086" height="33.5"></rect><text x="0" y="0" transform="matrix(1,0,0,1,0,11)" class="charset-label"><tspan>One of:</tspan></text><g transform="matrix(1,0,0,1,5,16)"><g transform="matrix(1,0,0,1,0,0)" class="charset-range"><text x="0" y="0" transform="matrix(1,0,0,1,29.6719,16)">-</text><g transform="matrix(1,0,0,1,0,0)" class="literal"><g class="label"><rect width="24.671875" height="23.5" rx="3" ry="3"></rect><text x="0" y="0" transform="matrix(1,0,0,1,5,16.75)"><tspan> 0</tspan></text></g></g><g transform="matrix(1,0,0,1,38.6719,0)" class="literal"><g class="label"><rect width="24.671875" height="23.5" rx="3" ry="3"></rect><text x="0" y="0" transform="matrix(1,0,0,1,5,16.75)"><tspan> 9</tspan></text></g></g></g></g></g></g><g transform="matrix(1,0,0,1,108.3438,0)" class="match-fragment subexp regexp"><path d="M10,61.5q0,-10 10,-10M464.70330810546875,61.5q0,-10 -10,-10M10,115.75q0,10 10,10M464.70330810546875,115.75q0,10 -10,10M0,76.25q10,0 10,-10V61.5M474.70330810546875,76.25q-10,0 -10,-10V61.5M0,76.25q10,0 10,10V115.75M474.70330810546875,76.25q-10,0 -10,10V115.75"></path><g transform="matrix(1,0,0,1,20,0)" class="regexp-matches"><path d="M0,51.5h15M419.7032860351562,51.5H434.70330810546875M0,125.75h82.6641M337.03918051757813,125.75H434.70330810546875"></path><g transform="matrix(1,0,0,1,0,0)" class="match"><path d="M129.6875805175781,51.5H184.6876"></path><g transform="matrix(1,0,0,1,0,13.75)" class="match-fragment"><path d="M0,37.75q10,0 10,-10v-17.75q0,-10 10,-10h119.68757629394531q10,0 10,10v17.75q0,10 10,10"></path><g transform="matrix(1,0,0,1,15,10)" class="subexp regexp match"><path d="M21.34375,27.75H41.3438"></path><g transform="matrix(1,0,0,1,0,16)" class="match-fragment literal"><g class="label"><rect width="21.34375" height="23.5" rx="3" ry="3"></rect><text x="0" y="0" transform="matrix(1,0,0,1,5,16.75)"><tspan style="font-weight:700"> .</tspan></text></g></g><g transform="matrix(1,0,0,1,31.3438,0)" class="match-fragment"><path d="M10,27.75q-10,0 -10,10v6.75q0,10 10,10h73.34378051757812q10,0 10,-10v-6.75q0,-10 -10,-10M93.34378051757812,42.75l5,-5m-5,5l-5,-5"></path><g transform="matrix(1,0,0,1,10,0)" class="charset"><rect rx="3" ry="3" class="charset-box" transform="matrix(1,0,0,1,0,11)" width="73.34377670288086" height="33.5"></rect><text x="0" y="0" transform="matrix(1,0,0,1,0,11)" class="charset-label"><tspan>One of:</tspan></text><g transform="matrix(1,0,0,1,5,16)"><g transform="matrix(1,0,0,1,0,0)" class="charset-range"><text x="0" y="0" transform="matrix(1,0,0,1,29.6719,16)">-</text><g transform="matrix(1,0,0,1,0,0)" class="literal"><g class="label"><rect width="24.671875" height="23.5" rx="3" ry="3"></rect><text x="0" y="0" transform="matrix(1,0,0,1,5,16.75)"><tspan> 0</tspan></text></g></g><g transform="matrix(1,0,0,1,38.6719,0)" class="literal"><g class="label"><rect width="24.671875" height="23.5" rx="3" ry="3"></rect><text x="0" y="0" transform="matrix(1,0,0,1,5,16.75)"><tspan> 9</tspan></text></g></g></g></g></g></g></g></g><g transform="matrix(1,0,0,1,169.6876,0)" class="match-fragment"><path d="M0,51.5q10,0 10,-10v-31.5q0,-10 10,-10h225.01568603515625q10,0 10,10v31.5q0,10 10,10"></path><g transform="matrix(1,0,0,1,15,10)" class="subexp regexp"><path d="M10,21.75q0,-10 10,-10M225.01568603515625,21.75q0,-10 -10,-10M0,41.5c10,0 10,14.75 20,14.75M235.01568603515625,41.5c-10,0 -10,14.75 -20,14.75M0,41.5q10,0 10,-10V21.75M235.01568603515625,41.5q-10,0 -10,-10V21.75"></path><g transform="matrix(1,0,0,1,20,0)" class="regexp-matches"><path d="M0,11.75h83.1719M111.843775,11.75H195.01568603515625M0,56.25h0M180.01568051757812,56.25H195.01568603515625"></path><g transform="matrix(1,0,0,1,83.1719,0)" class="match match-fragment literal"><g class="label"><rect width="28.671875" height="23.5" rx="3" ry="3"></rect><text x="0" y="0" transform="matrix(1,0,0,1,5,16.75)"><tspan> %</tspan></text></g></g><g transform="matrix(1,0,0,1,0,28.5)" class="match match-fragment subexp regexp"><path d="M24.671875,27.75H49.6719M71.6719,27.75H106.6719"></path><g transform="matrix(1,0,0,1,0,16)" class="match-fragment literal"><g class="label"><rect width="24.671875" height="23.5" rx="3" ry="3"></rect><text x="0" y="0" transform="matrix(1,0,0,1,5,16.75)"><tspan> e</tspan></text></g></g><g transform="matrix(1,0,0,1,34.6719,6)" class="match-fragment"><path d="M0,21.75q10,0 10,-10v-1.75q0,-10 10,-10h12q10,0 10,10v1.75q0,10 10,10"></path><g transform="matrix(1,0,0,1,15,10)" class="literal"><g class="label"><rect width="22" height="23.5" rx="3" ry="3"></rect><text x="0" y="0" transform="matrix(1,0,0,1,5,16.75)"><tspan style="font-weight:700"> -</tspan></text></g></g></g><g transform="matrix(1,0,0,1,96.6719,0)" class="match-fragment"><path d="M10,27.75q-10,0 -10,10v6.75q0,10 10,10h73.34378051757812q10,0 10,-10v-6.75q0,-10 -10,-10M93.34378051757812,42.75l5,-5m-5,5l-5,-5"></path><g transform="matrix(1,0,0,1,10,0)" class="charset"><rect rx="3" ry="3" class="charset-box" transform="matrix(1,0,0,1,0,11)" width="73.34377670288086" height="33.5"></rect><text x="0" y="0" transform="matrix(1,0,0,1,0,11)" class="charset-label"><tspan>One of:</tspan></text><g transform="matrix(1,0,0,1,5,16)"><g transform="matrix(1,0,0,1,0,0)" class="charset-range"><text x="0" y="0" transform="matrix(1,0,0,1,29.6719,16)">-</text><g transform="matrix(1,0,0,1,0,0)" class="literal"><g class="label"><rect width="24.671875" height="23.5" rx="3" ry="3"></rect><text x="0" y="0" transform="matrix(1,0,0,1,5,16.75)"><tspan> 0</tspan></text></g></g><g transform="matrix(1,0,0,1,38.6719,0)" class="literal"><g class="label"><rect width="24.671875" height="23.5" rx="3" ry="3"></rect><text x="0" y="0" transform="matrix(1,0,0,1,5,16.75)"><tspan> 9</tspan></text></g></g></g></g></g></g></g></g></g></g></g><g transform="matrix(1,0,0,1,82.6641,98)" class="match match-fragment subexp regexp"><path d="M21.34375,27.75H41.3438M114.68758051757813,27.75H139.6875M161.03125,27.75H181.0313"></path><g transform="matrix(1,0,0,1,0,16)" class="match-fragment literal"><g class="label"><rect width="21.34375" height="23.5" rx="3" ry="3"></rect><text x="0" y="0" transform="matrix(1,0,0,1,5,16.75)"><tspan class="quote">“</tspan><tspan> </tspan><tspan class="quote">”</tspan></text></g></g><g transform="matrix(1,0,0,1,31.3438,0)" class="match-fragment"><path d="M10,27.75q-10,0 -10,10v6.75q0,10 10,10h73.34378051757812q10,0 10,-10v-6.75q0,-10 -10,-10M93.34378051757812,42.75l5,-5m-5,5l-5,-5"></path><g transform="matrix(1,0,0,1,10,0)" class="charset"><rect rx="3" ry="3" class="charset-box" transform="matrix(1,0,0,1,0,11)" width="73.34377670288086" height="33.5"></rect><text x="0" y="0" transform="matrix(1,0,0,1,0,11)" class="charset-label"><tspan>One of:</tspan></text><g transform="matrix(1,0,0,1,5,16)"><g transform="matrix(1,0,0,1,0,0)" class="charset-range"><text x="0" y="0" transform="matrix(1,0,0,1,29.6719,16)">-</text><g transform="matrix(1,0,0,1,0,0)" class="literal"><g class="label"><rect width="24.671875" height="23.5" rx="3" ry="3"></rect><text x="0" y="0" transform="matrix(1,0,0,1,5,16.75)"><tspan> 0</tspan></text></g></g><g transform="matrix(1,0,0,1,38.6719,0)" class="literal"><g class="label"><rect width="24.671875" height="23.5" rx="3" ry="3"></rect><text x="0" y="0" transform="matrix(1,0,0,1,5,16.75)"><tspan> 9</tspan></text></g></g></g></g></g></g><g transform="matrix(1,0,0,1,139.6875,16)" class="match-fragment literal"><g class="label"><rect width="21.34375" height="23.5" rx="3" ry="3"></rect><text x="0" y="0" transform="matrix(1,0,0,1,5,16.75)"><tspan style="font-weight:700"> /</tspan></text></g></g><g transform="matrix(1,0,0,1,171.0313,0)" class="match-fragment"><path d="M10,27.75q-10,0 -10,10v6.75q0,10 10,10h73.34378051757812q10,0 10,-10v-6.75q0,-10 -10,-10M93.34378051757812,42.75l5,-5m-5,5l-5,-5"></path><g transform="matrix(1,0,0,1,10,0)" class="charset"><rect rx="3" ry="3" class="charset-box" transform="matrix(1,0,0,1,0,11)" width="73.34377670288086" height="33.5"></rect><text x="0" y="0" transform="matrix(1,0,0,1,0,11)" class="charset-label"><tspan>One of:</tspan></text><g transform="matrix(1,0,0,1,5,16)"><g transform="matrix(1,0,0,1,0,0)" class="charset-range"><text x="0" y="0" transform="matrix(1,0,0,1,29.6719,16)">-</text><g transform="matrix(1,0,0,1,0,0)" class="literal"><g class="label"><rect width="24.671875" height="23.5" rx="3" ry="3"></rect><text x="0" y="0" transform="matrix(1,0,0,1,5,16.75)"><tspan> 0</tspan></text></g></g><g transform="matrix(1,0,0,1,38.6719,0)" class="literal"><g class="label"><rect width="24.671875" height="23.5" rx="3" ry="3"></rect><text x="0" y="0" transform="matrix(1,0,0,1,5,16.75)"><tspan> 9</tspan></text></g></g></g></g></g></g></g></g></g></g><g transform="matrix(1,0,0,1,221.0235,157.5)" class="match match-fragment subexp regexp"><path d="M30.671875,56.25H50.6719"></path><g transform="matrix(1,0,0,1,0,44.5)" class="match-fragment literal"><g class="label"><rect width="30.671875" height="23.5" rx="3" ry="3"></rect><text x="0" y="0" transform="matrix(1,0,0,1,5,16.75)"><tspan> 0x</tspan></text></g></g><g transform="matrix(1,0,0,1,40.6719,0)" class="match-fragment"><path d="M10,56.25q-10,0 -10,10v35.25q0,10 10,10h75.328125q10,0 10,-10v-35.25q0,-10 -10,-10M95.328125,71.25l5,-5m-5,5l-5,-5"></path><g transform="matrix(1,0,0,1,10,0)" class="charset"><rect rx="3" ry="3" class="charset-box" transform="matrix(1,0,0,1,0,11)" width="75.328125" height="90.5"></rect><text x="0" y="0" transform="matrix(1,0,0,1,0,11)" class="charset-label"><tspan>One of:</tspan></text><g transform="matrix(1,0,0,1,5,16)"><g transform="matrix(1,0,0,1,0.9922,0)" class="charset-range"><text x="0" y="0" transform="matrix(1,0,0,1,29.6719,16)">-</text><g transform="matrix(1,0,0,1,0,0)" class="literal"><g class="label"><rect width="24.671875" height="23.5" rx="3" ry="3"></rect><text x="0" y="0" transform="matrix(1,0,0,1,5,16.75)"><tspan> 0</tspan></text></g></g><g transform="matrix(1,0,0,1,38.6719,0)" class="literal"><g class="label"><rect width="24.671875" height="23.5" rx="3" ry="3"></rect><text x="0" y="0" transform="matrix(1,0,0,1,5,16.75)"><tspan> 9</tspan></text></g></g></g><g transform="matrix(1,0,0,1,0,28.5)" class="charset-range"><text x="0" y="0" transform="matrix(1,0,0,1,31,16)">-</text><g transform="matrix(1,0,0,1,0,0)" class="literal"><g class="label"><rect width="26" height="23.5" rx="3" ry="3"></rect><text x="0" y="0" transform="matrix(1,0,0,1,5,16.75)"><tspan> A</tspan></text></g></g><g transform="matrix(1,0,0,1,40,0)" class="literal"><g class="label"><rect width="25.328125" height="23.5" rx="3" ry="3"></rect><text x="0" y="0" transform="matrix(1,0,0,1,5,16.75)"><tspan> F</tspan></text></g></g></g><g transform="matrix(1,0,0,1,2.6562,57)" class="charset-range"><text x="0" y="0" transform="matrix(1,0,0,1,29.6719,16)">-</text><g transform="matrix(1,0,0,1,0,0)" class="literal"><g class="label"><rect width="24.671875" height="23.5" rx="3" ry="3"></rect><text x="0" y="0" transform="matrix(1,0,0,1,5,16.75)"><tspan> a</tspan></text></g></g><g transform="matrix(1,0,0,1,38.6719,0)" class="literal"><g class="label"><rect width="21.34375" height="23.5" rx="3" ry="3"></rect><text x="0" y="0" transform="matrix(1,0,0,1,5,16.75)"><tspan> f</tspan></text></g></g></g></g></g></g></g></g></g></g><path d="M25,134.5H0M695.047119140625,134.5H705.047119140625"></path><circle cx="0" cy="134.5" r="5"></circle><circle cx="705.047119140625" cy="134.5" r="5"></circle></g></svg>
        