<svg xmlns="http://www.w3.org/2000/svg" width="735.047" height="289" style="background-color:#fff"><defs><style>.root text,.root tspan{font:12px Arial}.root circle,.root path{stroke-width:2px;stroke:#000}.root path{fill-opacity:0}.root circle{fill:#6b6659}.literal text{fill:#000}.literal rect{fill:#dae9e5}.charset .charset-box{fill:#cbcbba}.charset .charset-label tspan{font-size:10px;dominant-baseline:text-after-edge}.quote{fill:#908c83}</style></defs><g transform="translate(15 10)" class="root"><g class="regexp match"><path d="M47 134.5h25"/><g class="match-fragment"><path d="M10 134.5q10 0 10-10v-1.75q0-10 10-10h12q10 0 10 10v1.75q0 10 10 10"/><g class="literal"><g class="label" transform="translate(25 122.75)"><rect width="22" height="23.5" rx="3" ry="3"/><text transform="translate(5 16.75)"><tspan font-weight="700"> -</tspan></text></g></g></g><g class="match-fragment subexp regexp"><path d="M82 86.25q0-10 10-10m593.047 10q0-10-10-10M82 203.75q0 10 10 10m593.047-10q0 10-10 10M72 134.5q10 0 10-10V86.25m613.047 48.25q-10 0-10-10V86.25M72 134.5q10 0 10 10v59.25m613.047-69.25q-10 0-10 10v59.25"/><g class="regexp-matches"><path d="M92 76.25h10m-10 137.5h221.024m126 0h236.023"/><g class="match"><path d="M175.344 76.25h25"/><g class="match-fragment"><path d="M102 76.25q-10 0-10 10V93q0 10 10 10h73.344q10 0 10-10v-6.75q0-10-10-10m10 15l5-5m-5 5l-5-5"/><g transform="translate(102 48.5)" class="charset"><rect rx="3" ry="3" class="charset-box" transform="translate(0 11)" width="73.344" height="33.5"/><text transform="translate(0 11)" class="charset-label"><tspan>One of:</tspan></text><g class="charset-range"><text transform="translate(34.672 32)">-</text><g class="literal"><g class="label" transform="translate(5 16)"><rect width="24.672" height="23.5" rx="3" ry="3"/><text transform="translate(5 16.75)"><tspan> 0</tspan></text></g></g><g class="literal"><g class="label" transform="translate(43.672 16)"><rect width="24.672" height="23.5" rx="3" ry="3"/><text transform="translate(5 16.75)"><tspan> 9</tspan></text></g></g></g></g></g><g class="match-fragment subexp regexp"><path d="M210.344 61.5q0-10 10-10m444.703 10q0-10-10-10m-444.703 64.25q0 10 10 10m444.703-10q0 10-10 10m-454.703-49.5q10 0 10-10V61.5m464.703 14.75q-10 0-10-10V61.5M200.344 76.25q10 0 10 10v29.5m464.703-39.5q-10 0-10 10v29.5"/><g class="regexp-matches"><path d="M220.344 51.5h15m404.703 0h15m-434.703 74.25h82.664m254.375 0h97.664"/><g class="match"><path d="M350.031 51.5h55"/><g class="match-fragment"><path d="M220.344 51.5q10 0 10-10V23.75q0-10 10-10H360.03q10 0 10 10V41.5q0 10 10 10"/><g class="subexp regexp match"><path d="M256.688 51.5h20"/><g class="match-fragment literal"><g class="label" transform="translate(235.344 39.75)"><rect width="21.344" height="23.5" rx="3" ry="3"/><text transform="translate(5 16.75)"><tspan font-weight="900"> .</tspan></text></g></g><g class="match-fragment"><path d="M276.688 51.5q-10 0-10 10v6.75q0 10 10 10h73.343q10 0 10-10V61.5q0-10-10-10m10 15l5-5m-5 5l-5-5"/><g transform="translate(276.688 23.75)" class="charset"><rect rx="3" ry="3" class="charset-box" transform="translate(0 11)" width="73.344" height="33.5"/><text transform="translate(0 11)" class="charset-label"><tspan>One of:</tspan></text><g class="charset-range"><text transform="translate(34.672 32)">-</text><g class="literal"><g class="label" transform="translate(5 16)"><rect width="24.672" height="23.5" rx="3" ry="3"/><text transform="translate(5 16.75)"><tspan> 0</tspan></text></g></g><g class="literal"><g class="label" transform="translate(43.672 16)"><rect width="24.672" height="23.5" rx="3" ry="3"/><text transform="translate(5 16.75)"><tspan> 9</tspan></text></g></g></g></g></g></g></g><g class="match-fragment"><path d="M390.031 51.5q10 0 10-10V10q0-10 10-10h225.016q10 0 10 10v31.5q0 10 10 10"/><g class="subexp regexp"><path d="M415.031 31.75q0-10 10-10m205.016 10q0-10-10-10M405.031 51.5c10 0 10 14.75 20 14.75M640.047 51.5c-10 0-10 14.75-20 14.75M405.031 51.5q10 0 10-10v-9.75M640.047 51.5q-10 0-10-10v-9.75"/><g class="regexp-matches"><path d="M425.031 21.75h83.172m28.672 0h83.172m-15 44.5h15"/><g class="match match-fragment literal"><g class="label" transform="translate(508.203 10)"><rect width="28.672" height="23.5" rx="3" ry="3"/><text transform="translate(5 16.75)"><tspan> %</tspan></text></g></g><g class="match match-fragment subexp regexp"><path d="M449.703 66.25h25m22 0h35"/><g class="match-fragment literal"><g class="label" transform="translate(425.031 54.5)"><rect width="24.672" height="23.5" rx="3" ry="3"/><text transform="translate(5 16.75)"><tspan> e</tspan></text></g></g><g class="match-fragment"><path d="M459.703 66.25q10 0 10-10V54.5q0-10 10-10h12q10 0 10 10v1.75q0 10 10 10"/><g class="literal"><g class="label" transform="translate(474.703 54.5)"><rect width="22" height="23.5" rx="3" ry="3"/><text transform="translate(5 16.75)"><tspan font-weight="700"> -</tspan></text></g></g></g><g class="match-fragment"><path d="M531.703 66.25q-10 0-10 10V83q0 10 10 10h73.344q10 0 10-10v-6.75q0-10-10-10m10 15l5-5m-5 5l-5-5"/><g transform="translate(531.703 38.5)" class="charset"><rect rx="3" ry="3" class="charset-box" transform="translate(0 11)" width="73.344" height="33.5"/><text transform="translate(0 11)" class="charset-label"><tspan>One of:</tspan></text><g class="charset-range"><text transform="translate(34.672 32)">-</text><g class="literal"><g class="label" transform="translate(5 16)"><rect width="24.672" height="23.5" rx="3" ry="3"/><text transform="translate(5 16.75)"><tspan> 0</tspan></text></g></g><g class="literal"><g class="label" transform="translate(43.672 16)"><rect width="24.672" height="23.5" rx="3" ry="3"/><text transform="translate(5 16.75)"><tspan> 9</tspan></text></g></g></g></g></g></g></g></g></g></g><g class="match match-fragment subexp regexp"><path d="M324.352 125.75h20m73.343 0h25m21.344 0h20"/><g class="match-fragment literal"><g class="label" transform="translate(303.008 114)"><rect width="21.344" height="23.5" rx="3" ry="3"/><text transform="translate(5 16.75)"><tspan class="quote">“</tspan><tspan> </tspan><tspan class="quote">”</tspan></text></g></g><g class="match-fragment"><path d="M344.352 125.75q-10 0-10 10v6.75q0 10 10 10h73.343q10 0 10-10v-6.75q0-10-10-10m10 15l5-5m-5 5l-5-5"/><g transform="translate(344.352 98)" class="charset"><rect rx="3" ry="3" class="charset-box" transform="translate(0 11)" width="73.344" height="33.5"/><text transform="translate(0 11)" class="charset-label"><tspan>One of:</tspan></text><g class="charset-range"><text transform="translate(34.672 32)">-</text><g class="literal"><g class="label" transform="translate(5 16)"><rect width="24.672" height="23.5" rx="3" ry="3"/><text transform="translate(5 16.75)"><tspan> 0</tspan></text></g></g><g class="literal"><g class="label" transform="translate(43.672 16)"><rect width="24.672" height="23.5" rx="3" ry="3"/><text transform="translate(5 16.75)"><tspan> 9</tspan></text></g></g></g></g></g><g class="match-fragment literal"><g class="label" transform="translate(442.695 114)"><rect width="21.344" height="23.5" rx="3" ry="3"/><text transform="translate(5 16.75)"><tspan font-weight="700"> /</tspan></text></g></g><g class="match-fragment"><path d="M484.04 125.75q-10 0-10 10v6.75q0 10 10 10h73.343q10 0 10-10v-6.75q0-10-10-10m10 15l5-5m-5 5l-5-5"/><g transform="translate(484.04 98)" class="charset"><rect rx="3" ry="3" class="charset-box" transform="translate(0 11)" width="73.344" height="33.5"/><text transform="translate(0 11)" class="charset-label"><tspan>One of:</tspan></text><g class="charset-range"><text transform="translate(34.672 32)">-</text><g class="literal"><g class="label" transform="translate(5 16)"><rect width="24.672" height="23.5" rx="3" ry="3"/><text transform="translate(5 16.75)"><tspan> 0</tspan></text></g></g><g class="literal"><g class="label" transform="translate(43.672 16)"><rect width="24.672" height="23.5" rx="3" ry="3"/><text transform="translate(5 16.75)"><tspan> 9</tspan></text></g></g></g></g></g></g></g></g></g><g class="match match-fragment subexp regexp"><path d="M343.695 213.75h20"/><g class="match-fragment literal"><g class="label" transform="translate(313.024 202)"><rect width="30.672" height="23.5" rx="3" ry="3"/><text transform="translate(5 16.75)"><tspan> 0x</tspan></text></g></g><g class="match-fragment"><path d="M363.695 213.75q-10 0-10 10V259q0 10 10 10h75.329q10 0 10-10v-35.25q0-10-10-10m10 15l5-5m-5 5l-5-5"/><g transform="translate(363.695 157.5)" class="charset"><rect rx="3" ry="3" class="charset-box" transform="translate(0 11)" width="75.328" height="90.5"/><text transform="translate(0 11)" class="charset-label"><tspan>One of:</tspan></text><g class="charset-range"><text transform="translate(35.664 32)">-</text><g class="literal"><g class="label" transform="translate(5.992 16)"><rect width="24.672" height="23.5" rx="3" ry="3"/><text transform="translate(5 16.75)"><tspan> 0</tspan></text></g></g><g class="literal"><g class="label" transform="translate(44.664 16)"><rect width="24.672" height="23.5" rx="3" ry="3"/><text transform="translate(5 16.75)"><tspan> 9</tspan></text></g></g></g><g class="charset-range"><text transform="translate(36 60.5)">-</text><g class="literal"><g class="label" transform="translate(5 44.5)"><rect width="26" height="23.5" rx="3" ry="3"/><text transform="translate(5 16.75)"><tspan> A</tspan></text></g></g><g class="literal"><g class="label" transform="translate(45 44.5)"><rect width="25.328" height="23.5" rx="3" ry="3"/><text transform="translate(5 16.75)"><tspan> F</tspan></text></g></g></g><g class="charset-range"><text transform="translate(37.328 89)">-</text><g class="literal"><g class="label" transform="translate(7.656 73)"><rect width="24.672" height="23.5" rx="3" ry="3"/><text transform="translate(5 16.75)"><tspan> a</tspan></text></g></g><g class="literal"><g class="label" transform="translate(46.328 73)"><rect width="21.344" height="23.5" rx="3" ry="3"/><text transform="translate(5 16.75)"><tspan> f</tspan></text></g></g></g></g></g></g></g></g></g><path d="M25 134.5H0m695.047 0h10"/><circle cy="134.5" r="5"/><circle cx="705.047" cy="134.5" r="5"/></g></svg>