<svg xmlns="http://www.w3.org/2000/svg" width="540" height="144.1" viewBox="0 0 483.445 129" style="background-color:#fff"><defs><style>.root text,.root tspan{font:12px Arial}.root circle,.root path{stroke-width:2px;stroke:#000}.root path{fill-opacity:0}.root circle{fill:#6b6659}.literal text{fill:#000}.literal rect{fill:#dae9e5}</style></defs><g class="root" transform="translate(15 10)"><g class="regexp match"><path d="M34 54.5h10m66.04 0h10m245.382 0h25"/><g class="match-fragment literal"><g class="label" transform="translate(10 42.75)"><rect width="24" height="23.5" rx="3" ry="3"/><text transform="translate(5 16.75)"><tspan> if</tspan></text></g></g><g class="match-fragment subexp regexp match literal"><g class="label" transform="translate(44 42.75)"><rect width="66.039" height="23.5" rx="3" ry="3"/><text transform="translate(5 16.75)"><tspan style="font-style:italic"> condition</tspan></text></g></g><g class="match-fragment subexp regexp"><path d="M120.04 54.5c10 0 10-14.25 20-14.25M365.421 54.5c-10 0-10-14.25-20-14.25m-215.383 47q0 10 10 10m215.383-10q0 10-10 10M120.039 54.5q10 0 10 10v22.75M365.422 54.5q-10 0-10 10v22.75"/><g class="regexp-matches"><path d="M330.422 40.25h15m-205.383 57h78.68m48.023 0h78.68"/><g class="match"><path d="M229.39 40.25h25"/><g class="match-fragment subexp regexp"><path d="M150.04 21.75q0-10 10-10m59.35 10q0-10-10-10m-69.35 28.5h20m69.35 0h-20m-59.35 18.5q0 10 10 10m59.35-10q0 10-10 10m-69.35-28.5q10 0 10-10v-8.5m79.35 18.5q-10 0-10-10v-8.5m-79.35 18.5q10 0 10 10v8.5m79.35-18.5q-10 0-10 10v8.5"/><g class="regexp-matches"><path d="M160.04 40.25h1.003m47.344 0h1.004m-49.352 28.5h4.004m41.344 0h4.004"/><g class="match match-fragment literal"><g class="label" transform="translate(160.04)"><rect width="49.352" height="23.5" rx="3" ry="3"/><text transform="translate(5 16.75)"><tspan> return</tspan></text></g></g><g class="match match-fragment literal"><g class="label" transform="translate(161.043 28.5)"><rect width="47.344" height="23.5" rx="3" ry="3"/><text transform="translate(5 16.75)"><tspan> throw</tspan></text></g></g><g class="match match-fragment literal"><g class="label" transform="translate(164.043 57)"><rect width="41.344" height="23.5" rx="3" ry="3"/><text transform="translate(5 16.75)"><tspan> print</tspan></text></g></g></g></g><g class="match-fragment"><path d="M239.39 40.25q10 0 10-10V28.5q0-10 10-10h66.032q10 0 10 10v1.75q0 10 10 10"/><g class="subexp regexp match match-fragment literal"><g class="label" transform="translate(254.39 28.5)"><rect width="76.031" height="23.5" rx="3" ry="3"/><text transform="translate(5 16.75)"><tspan style="font-style:italic"> expression</tspan></text></g></g></g></g><g class="match match-fragment literal"><g class="label" transform="translate(218.719 85.5)"><rect width="48.023" height="23.5" rx="3" ry="3"/><text transform="translate(5 16.75)"><tspan> break</tspan></text></g></g></g></g><g class="match-fragment"><path d="M375.422 54.5q10 0 10-10v-1.75q0-10 10-10h28.023q10 0 10 10v1.75q0 10 10 10"/><g class="subexp regexp match match-fragment literal"><g class="label" transform="translate(390.422 42.75)"><rect width="38.023" height="23.5" rx="3" ry="3"/><text transform="translate(5 16.75)"><tspan> end</tspan></text></g></g></g></g><path d="M10 54.5H0m428.445 0h25"/><circle cy="54.5" r="5"/><circle cx="453.445" cy="54.5" r="5"/></g></svg>