<svg xmlns="http://www.w3.org/2000/svg" width="550" height="203.544" viewBox="0 0 459.359 170" style="background-color:#fff"><defs><style>.root text,.root tspan{font:12px Arial}.root circle,.root path{stroke-width:2px;stroke:#000}.root path{fill-opacity:0}.root circle{fill:#6b6659}.literal text{fill:#000}.literal rect{fill:#dae9e5}</style></defs><g transform="translate(15 10)" class="root"><g class="regexp match"><path d="M30.297 75h10m348.766 0h10"/><g class="match-fragment literal"><g class="label" transform="translate(10 63.25)"><rect width="20.297" height="23.5" rx="3" ry="3"/><text transform="translate(5 16.75)"><tspan style="font-weight:700"> &apos;</tspan></text></g></g><g class="match-fragment subexp regexp"><path d="M40.297 75c10 0 10-13.75 20-13.75M389.063 75c-10 0-10-13.75-20-13.75m-318.766 67q0 10 10 10m318.766-10q0 10-10 10M40.297 75q10 0 10 10v43.25M389.063 75q-10 0-10 10v43.25"/><g class="regexp-matches"><path d="M60.297 61.25h45.687m227.391 0h35.688m-308.766 77h15m293.766 0"/><g class="match"><path d="M242.672 61.25h20"/><g class="match-fragment subexp"><g class="regexp"><path d="M115.984 42.75q0-10 10-10m106.688 10q0-10-10-10m-116.688 28.5h20m116.688 0h-20m-106.688 18.5q0 10 10 10m106.688-10q0 10-10 10m-116.688-28.5q10 0 10-10v-8.5m126.688 18.5q-10 0-10-10v-8.5m-126.688 18.5q10 0 10 10v8.5m126.688-18.5q-10 0-10 10v8.5"/><g class="regexp-matches"><path d="M125.984 32.75h19m58.688 0h19m-96.688 57h4.664m87.36 0h4.664"/><g class="match match-fragment literal"><g class="label" transform="translate(144.984 21)"><rect width="58.688" height="23.5" rx="3" ry="3"/><text transform="translate(5 16.75)"><tspan style="font-style:italic"> number</tspan></text></g></g><g class="match match-fragment literal"><g class="label" transform="translate(125.984 49.5)"><rect width="96.688" height="23.5" rx="3" ry="3"/><text transform="translate(5 16.75)"><tspan style="font-style:italic"> numeric matrix</tspan></text></g></g><g class="match match-fragment literal"><g class="label" transform="translate(130.648 78)"><rect width="87.359" height="23.5" rx="3" ry="3"/><text transform="translate(5 16.75)"><tspan style="font-style:italic"> numeric map</tspan></text></g></g></g></g></g><g class="match-fragment literal"><g class="label" transform="translate(262.672 49.5)"><rect width="70.703" height="23.5" rx="3" ry="3"/><text transform="translate(5 16.75)"><tspan style="font-style:italic"> unit name</tspan></text></g></g></g><g class="match"><path d="M97.297 138.25h25m105.36 0h10"/><g class="match-fragment"><path d="M60.297 138.25q10 0 10-10v-1.75q0-10 10-10h12q10 0 10 10v1.75q0 10 10 10"/><g class="literal"><g class="label" transform="translate(75.297 126.5)"><rect width="22" height="23.5" rx="3" ry="3"/><text transform="translate(5 16.75)"><tspan style="font-weight:700"> -</tspan></text></g></g></g><g class="match-fragment literal"><g class="label" transform="translate(122.297 126.5)"><rect width="105.359" height="23.5" rx="3" ry="3"/><text transform="translate(5 16.75)"><tspan style="font-style:italic"> currency symbol</tspan></text></g></g><g class="match-fragment subexp regexp match literal"><g class="label" transform="translate(237.656 126.5)"><rect width="131.406" height="23.5" rx="3" ry="3"/><text transform="translate(5 16.75)"><tspan style="font-style:italic"> non-negative number</tspan></text></g></g></g></g></g><g class="match-fragment literal"><g class="label" transform="translate(399.063 63.25)"><rect width="20.297" height="23.5" rx="3" ry="3"/><text transform="translate(5 16.75)"><tspan style="font-weight:700"> &apos;</tspan></text></g></g></g><path d="M10 75H0m419.36 0h10"/><circle cy="75" r="5"/><circle cx="429.359" cy="75" r="5"/></g></svg>