<svg height="16" width="16" viewBox="0 0 512 512" xmlns="http://www.w3.org/2000/svg"><path d="M426.667 0c-46.933 0-85.333 38.4-85.333 85.333V192c0 12.8 8.533 21.333 21.333 21.333h128c12.8 0 21.333-8.533 21.333-21.333V85.333C512 38.4 473.6 0 426.667 0zm42.666 170.667H384V85.333c0-23.467 19.2-42.667 42.667-42.667s42.667 19.2 42.667 42.667v85.334zM362.667 384c-12.8 0-21.333 8.533-21.333 21.333v21.333c0 12.8 8.533 21.333 21.333 21.333S384 439.467 384 426.667v-21.333c0-12.801-8.533-21.334-21.333-21.334z M362.667 405.333c-12.8 0-21.333 8.533-21.333 21.333 0 23.467-19.2 42.667-42.667 42.667S256 450.133 256 426.667v-21.333c0-12.8-8.533-21.333-21.333-21.333-12.8 0-21.333 8.533-21.333 21.333v21.333c0 46.933 38.4 85.333 85.333 85.333S384 473.6 384 426.667c0-12.8-8.533-21.334-21.333-21.334z M426.667 0h-320c-36.267 0-64 27.733-64 64v341.333c0 12.8 8.533 21.333 21.333 21.333s21.333-8.533 21.333-21.333V64c0-12.8 8.533-21.333 21.333-21.333H352c-6.4 12.8-10.667 27.733-10.667 42.667v320c0 12.8 8.533 21.333 21.333 21.333S384 418.133 384 405.333v-320c0-23.467 19.2-42.667 42.667-42.667C454.4 42.667 454.4 0 426.667 0z M298.667 469.333c-23.467 0-42.667-19.2-42.667-42.667v-21.333c0-12.8-8.533-21.333-21.333-21.333H21.333C8.533 384 0 392.533 0 405.333v21.333C0 473.6 38.4 512 85.333 512h213.333c27.734 0 27.734-42.667.001-42.667zm-213.334 0c-23.467 0-42.667-19.2-42.667-42.667h170.667c0 14.933 4.267 29.867 10.667 42.667H85.333zM192 106.667h-42.667C136.533 106.667 128 115.2 128 128s8.533 21.333 21.333 21.333H192c12.8 0 21.333-8.533 21.333-21.333S204.8 106.667 192 106.667zM277.333 192h-42.667c-12.8 0-21.333 8.533-21.333 21.333 0 12.8 8.533 21.333 21.333 21.333h42.667c12.8 0 21.333-8.533 21.333-21.333.001-12.8-8.533-21.333-21.333-21.333zM277.333 106.667H256c-12.8 0-21.333 8.533-21.333 21.333S243.2 149.333 256 149.333h21.333c12.8 0 21.333-8.533 21.333-21.333s-8.533-21.333-21.333-21.333zM192 277.333h-42.667c-12.8 0-21.333 8.533-21.333 21.333 0 12.8 8.533 21.333 21.333 21.333H192c12.8 0 21.333-8.533 21.333-21.333 0-12.799-8.533-21.333-21.333-21.333zM277.333 277.333H256c-12.8 0-21.333 8.533-21.333 21.333 0 12.8 8.533 21.333 21.333 21.333h21.333c12.8 0 21.333-8.533 21.333-21.333.001-12.799-8.533-21.333-21.333-21.333zM149.333 192c-12.8 0-21.333 8.533-21.333 21.333 0 12.8 8.533 21.333 21.333 21.333 12.8 0 21.333-8.533 21.333-21.333.001-12.8-8.533-21.333-21.333-21.333z"/></svg>