<svg xmlns="http://www.w3.org/2000/svg" width="250" height="150" style="float: inline"><title>sin x</title><text x="175" y="87.5" font-style="normal" font-family="sans-serif" font-size="10" font-weight="normal" text-anchor="middle">2</text><text x="225" y="87.5" font-style="normal" font-family="sans-serif" font-size="10" font-weight="normal" text-anchor="middle">4</text><text x="75" y="87.5" font-style="normal" font-family="sans-serif" font-size="10" font-weight="normal" text-anchor="middle">-2</text><text x="25" y="87.5" font-style="normal" font-family="sans-serif" font-size="10" font-weight="normal" text-anchor="middle">-4</text><text x="120" y="53.333333333333336" font-style="normal" font-family="sans-serif" font-size="10" font-weight="normal" text-anchor="end">1</text><text x="120" y="28.333333333333332" font-style="normal" font-family="sans-serif" font-size="10" font-weight="normal" text-anchor="end">2</text><text x="120" y="3.3333333333333335" font-style="normal" font-family="sans-serif" font-size="10" font-weight="normal" text-anchor="end">3</text><text x="120" y="103.33333333333333" font-style="normal" font-family="sans-serif" font-size="10" font-weight="normal" text-anchor="end">-1</text><text x="120" y="128.33333333333334" font-style="normal" font-family="sans-serif" font-size="10" font-weight="normal" text-anchor="end">-2</text><text x="120" y="153.33333333333334" font-style="normal" font-family="sans-serif" font-size="10" font-weight="normal" text-anchor="end">-3</text><path d="M0,75 250,75 M125,0 125,150 M175 77.5 175,72.5 M225 77.5 225,72.5 M75,77.5 75,72.5 M25,77.5 25,72.5 M127.5,100 122.5,100 M127.5,125 122.5,125 M127.5,50 122.5,50 M127.5,25 122.5,25" stroke-width="0.5" stroke="black" fill="none"></path><path d="M0,51.02689313342154 L4.901960784313729,50.104654585045665 L9.803921568627459,50.136498522965496 L14.705882352941174,51.12120456871436 L19.607843137254903,53.021035114047095 L24.509803921568633,55.76318156683453 L29.411764705882348,59.242554647861795 L34.31372549019608,63.32581180395022 L39.21568627450981,67.85646739191094 L44.11764705882352,72.66088979202308 L49.019607843137265,77.55495561927987 L53.92156862745098,82.35110601821111 L58.82352941176471,86.86553461774668 L63.725490196078425,90.92523167688242 L68.62745098039215,94.37461446321487 L73.52941176470588,97.08148976351015 L78.43137254901961,98.94212002066467 L83.33333333333333,99.88519894379411 L88.23529411764706,99.87458423124517 L93.13725490196079,98.91068267839142 L98.0392156862745,97.03043458771765 L102.94117647058823,94.3058980786555 L107.84313725490196,90.84148755169798 L112.74509803921569,86.7699721391474 L117.6470588235294,82.24738749678795 L122.54901960784314,77.44705593560366 L127.45098039215686,72.55294406439634 L132.35294117647058,67.75261250321205 L137.2549019607843,63.2300278608526 L142.15686274509804,59.15851244830202 L147.05882352941177,55.6941019213445 L151.9607843137255,52.96956541228235 L156.86274509803923,51.08931732160859 L161.76470588235293,50.125415768754834 L166.66666666666669,50.11480105620588 L171.5686274509804,51.05787997933534 L176.47058823529412,52.91851023648985 L181.37254901960785,55.62538553678513 L186.27450980392157,59.07476832311758 L191.1764705882353,63.134465382253325 L196.078431372549,67.64889398178889 L200.98039215686273,72.44504438072013 L205.88235294117646,77.33911020797692 L210.7843137254902,82.14353260808906 L215.68627450980392,86.67418819604978 L220.58823529411765,90.7574453521382 L225.49019607843138,94.23681843316547 L230.39215686274508,96.9789648859529 L235.29411764705884,98.87879543128565 L240.19607843137254,99.8635014770345 L245.09803921568627,99.89534541495433 L250,98.97310686657846 " stroke-width="2" stroke="black" fill="none"></path><text x="165" y="45.25" font-style="normal" font-family="sans-serif" font-size="12" font-weight="normal" text-anchor="middle">sin x</text></svg>