<svg xmlns="http://www.w3.org/2000/svg" width="200" height="200" style="float: inline"><title>spiral</title><path d="M0,100 200,100 M100,0 100,200 M112.5 101.5625 112.5,98.4375 M125 101.5625 125,98.4375 M137.5 101.5625 137.5,98.4375 M150 101.5625 150,98.4375 M162.5 101.5625 162.5,98.4375 M175 101.5625 175,98.4375 M187.5 101.5625 187.5,98.4375 M87.5,101.5625 87.5,98.4375 M75,101.5625 75,98.4375 M62.5,101.5625 62.5,98.4375 M50,101.5625 50,98.4375 M37.5,101.5625 37.5,98.4375 M25,101.5625 25,98.4375 M12.5,101.5625 12.5,98.4375 M101.5625,112.5 98.4375,112.5 M101.5625,125 98.4375,125 M101.5625,137.5 98.4375,137.5 M101.5625,150 98.4375,150 M101.5625,162.5 98.4375,162.5 M101.5625,175 98.4375,175 M101.5625,187.5 98.4375,187.5 M101.5625,87.5 98.4375,87.5 M101.5625,75 98.4375,75 M101.5625,62.5 98.4375,62.5 M101.5625,50 98.4375,50 M101.5625,37.5 98.4375,37.5 M101.5625,25 98.4375,25 M101.5625,12.5 98.4375,12.5" stroke-width="0.5" stroke="black" fill="none"></path><path d="M100,100 L100.39641081044951,99.96017402100915 L100.78088821863409,99.84149401596858 L101.14169813174415,99.64634179047235 L101.46750228019964,99.37864721332403 L101.7475491760725,99.04382906428614 L101.97185682806872,98.64871333079307 L102.13138463125557,98.2014300467886 L102.21819198938582,97.71129005554894 L102.22558139901679,97.1886433497153 L102.1482239255457,96.64472089237049 L101.98226522931837,96.0914620496741 L101.72541055231414,95.54132996544112 L101.3769873494613,95.00711737854479 L100.93798454002616,94.5017455229445 L100.41106766014906,94.03805885565453 L99.80056951369625,93.62861842866471 L99.11245624124271,93.28549675569701 L98.35426905219093,93.02007702317414 L97.53504218871808,92.84285945676487 L96.66519800838427,92.76327758068305 L95.75642038083934,92.78952699732054 L94.82150788924898,92.92840917099278 L93.87420860508321,93.18519252319297 L92.92903846222981,93.56349293981467 L92.00108548970462,94.06517555572412 L91.1058023685011,94.69027942160204 L90.25878995464043,95.43696637521356 L89.47557455488524,96.30149513757559 L88.771381851878,97.27822133748549 L88.16091045007711,98.35962383937527 L87.65810805162995,99.53635741344121 L87.27595327152551,100.79733144756185 L87.02624606374009,102.12981406181433 L86.91940965481689,103.51956065260427 L86.9643067690487,104.95096556867566 L87.16807278125431,106.40723530961725 L87.53596825059239,107.8705813428584 L88.07125307389552,109.32243036128622 L88.77508425199798,110.74364955404394 L89.646438990209,112.11478424102759 L90.68206455753871,113.41630503003668 L91.8764560119127,114.62886149704454 L93.22186256408868,115.73353926685675 L94.70832300521916,116.71211728533956 L96.32373026608268,117.54732202680006 L98.0539248141661,118.22307537192907 L99.88281623234835,118.72473292344114 L101.79253196427935,119.03930959816563 L103.76359186102516,119.15568944538518 L105.77510682545478,119.06481679073102 L107.80499952936677,118.75986599151935 L109.83024487750917,118.23638731118359 L111.82712761625442,117.49242667512792 L113.77151423630181,116.52861735519096 L115.6391361016543,115.34824194188027 L117.40588055416637,113.95726329918287 L119.04808659672608,112.36432355233399 L120.54284165074654,110.58071053042133 L121.8682758167908,108.6202914688835 L123.00385004207308,106.49941416741322 L123.9306346160196,104.23677619196772 L124.63157447529666,101.85326310090173 L125.09173790248741,99.37175706004422 L125.29854534718369,96.81691758523542 L125.24197528342835,94.21493650891037 L124.91474424147886,91.59326960538269 L124.31245841258213,88.98034762336039 L123.43373452022087,86.40526975996804 L122.2802879770606,83.89748286449964 L120.85698670015069,81.48644987895452 L119.17186933401666,79.20131120316725 L117.23612702801634,77.07054281248563 L115.064048326341,75.12161505338443 L112.67292715172883,73.38065609549813 L110.0829342925537,71.87212402618107 L107.31695323257367,70.61849153524204 L104.40038158832861,69.63994705285057 L101.36089983600941,68.95411607320932 L98.22820941268678,68.57580622139372 L95.03374266129016,68.5167794022567 L91.81034745003717,68.78555411048274 L88.59194963071856,69.38724068223524 L85.41319680219682,70.32341193433373 L82.30908711185526,71.59201126991778 L79.3145870550743,73.18729993390238 L76.46424241806191,75.09984468137702 L73.79178664991858,77.31654668192914 L71.32975104354315,79.82071202745402 L69.1090811502673,82.5921637453261 L67.1587638488524,85.60739474801346 L65.50546943515597,88.8397606795765 L64.17321299438936,92.25971115433575 L63.18303916403502,95.83505742862721 L62.55273419331118,99.53127410824493 L62.29656895627277,103.3118320770225 L62.4250762824619,107.13855944096932 L62.94486563423875,110.97202692215512 L63.85847778679668,114.77195381153734 L65.16428175912279,118.49763030420135 L66.85641580596,122.10835179769848 L68.92477381670197,125.56386053754579 L71.35503798197901,128.82478984622185 L74.12875808764443,131.85310607539049 L77.22347728433175,134.61254337727613 L80.61290366430177,137.06902640120845 L84.26712646161388,139.19107608587353 L88.152875182474,140.95019383666545 L92.23381947565638,142.32121955004652 L96.47090707381379,143.2826591717074 L100.82273668079748,143.81697775068827 L105.24596225310401,143.91085427502102 L109.69572473030735,143.55539494286103 L114.12610691454837,142.74630193295212 L118.49060688718714,141.48399518556778 L122.7426250855165,139.77368518529778 L126.83595994742362,137.62539524530126 L130.7253068700295,135.05393232365222 L134.36675512199105,132.07880595059726 L137.71827730014053,128.72409540510301 L140.7402059306307,125.01826584399552 L143.39569188331745,120.99393465115503 L145.6511393956647,116.6875898314475 L147.4766126882569,112.13926281818709 L148.8462093966908,107.3921585878305 L149.7383963421691,102.49224647537355 L150.13630351290644,97.48781555282343 L150.02797252725588,92.42899886568969 L149.40655629347057,87.36727121359377 L148.27046706590772,82.35492550609229 L146.6234706184402,77.44453301942019 L144.47472480760513,72.6883931203048 L141.8387613749457,68.13797820610412 L138.73541043410853,63.84337973364882 L135.18966769729872,59.852761270347 L131.2315051112258,56.21182449900289 L126.89562618808904,52.9632940417348 L122.2211679258302,50.14642683839662 L117.25135180714743,47.79655162170445 L112.03308694207773,45.94464377627065 L106.61652896787879,44.61694055402751 L101.0545988362948,43.83460124684501 L95.40246609616094,43.61341649190416 L89.71700171313756,43.963570410586556 L84.05620585304918,44.8894587618708 L78.47861638616989,46.38956573158811 L73.04270414274345,48.45640138498635 L67.80626116150735,51.07650118788857 L62.82578832011032,54.23048835769143 L58.155888816812364,57.89319914620546 L53.84867398520085,62.03387048879347 L49.953187866999585,66.61638878547535 L46.51485684228944,71.59959791678187 L43.57497042224382,76.93766394729366 L41.17019904817285,82.58049334008368 L39.33215441439163,88.47420090260158 L38.08699744398476,94.56162311562625 L37.45509859946655,100.78287196814429 L37.45075470879069,107.07592393846136 L38.08196593595555,113.37723833109374 L39.350275929944566,119.62239880514028 L41.25067755183602,125.74677161744273 L43.771585913969766,131.6861738568223 L46.89487977383564,137.37754476732954 L50.59601161593851,142.75961315130598 L54.8441860346538,147.77355380898607 L59.602605307556914,152.3636260114377 L64.82878032952182,156.4777871181397 L70.47490437071167,160.068274638939 L76.48828643404207,163.092150301247 L82.8118403272388,165.51180001503627 L89.38462493850778,167.29538402767633 L96.14243062002703,168.4172320243074 L103.01840604653361,168.85817845301005 L109.94371943336597,168.60583393251943 L116.84824757500527,167.65478922806102 L123.66128580652621,166.00674895189502 L130.3122717007568,163.67059285265987 L136.73151509710544,160.66236329448725 L142.85092691687402,157.00517828562602 L148.6047391566621,152.7290701891533 L153.93020846753268,147.87075102727454 L158.76829582355117,142.47330606755168 L163.06431495882975,136.5858181459683 L166.76854250619567,130.26292592987602 L169.836783101115,123.56432004551817 L172.23088311873346,116.5541816821949 L173.91918718630237,109.30056893064014 L174.8769321534545,101.87475670970912 L175.08657380372694,94.35053667628344 L174.5380422466184,86.80348399223158 L173.2289226339326,79.31019823373438 L171.16455859023444,71.94752606736216 L168.35807652748406,64.79177357980461 L164.83032982043608,57.91791633065276 L160.60976264397206,51.39881529748803 L155.73219410771352,45.30444689802664 L150.24052415836027,39.70115520421069 L144.1843635475164,34.65093430801261 L137.61959097354477,30.21074855912434 L130.60784129163434,26.431898072473118 L123.21592943832815,23.35943650126127 L115.51521542708316,21.03164759249377 L107.58091643226484,19.479586491091226 L99.4913725829584,18.726691140808654 L91.32727362834886,18.788468451185665 L83.17085410695609,19.67225916620427 L75.10506504728104,21.377084589425195 L67.21273054256844,23.89357749985571 L59.575697773565444,27.203998740897546 L52.27398919714955,31.282340090055953 L45.3849656733523,36.094513128579706 L38.982509267271034,41.59862293699189 L33.13623433525635,47.74532455384315 L27.910735287210017,54.47825926022443 L23.364879110268674,61.734566900897164 L19.551150346129077,69.4454696333161 L16.51505573809608,77.53692171720206 L14.294595208949616,85.93031922801478 L12.919805202002763,94.54326290574858 L12.412379721244776,103.29036674332062 L12.785373648901356,112.08410438326877 L14.042992107479932,120.83568493373195 L16.18046877640745,129.45594944002306 L19.18403517923923,137.85627896119146 L23.03098203510585,145.9495050053672 L27.689812826929995,153.65081297625426 L33.12048878859029,160.8786292775864 L39.2747635634334,167.55548281356516 L46.09660484718281,173.60883181102992 L53.52269940919279,178.97184717220375 L61.48303699683842,183.5841439431107 L69.90156777803128,187.39245294897614 L78.69692717558287,190.35122520002375 L87.78322120298792,192.42316230393533 L97.07086473241375,193.57966682898706 L106.46746451967874,193.80120733770212 L115.87873828472874,193.0775936472968 L125.20946070552239,191.408158762026 L134.36442683358982,188.8018448549645 L143.24942318512842,185.277191643474 L151.7721966056513,180.86222649387156 L159.8434109513403,175.5942565965442 L167.3775816775942,169.5195645627009 L174.29397857519427,162.69300979765399 L180.5174871461393,155.17753899261618 L185.97941946276677,147.0436100371209 L190.6182658023277,138.36853457724172 L194.38037889084995,129.23574532095267 L197.22058321994365,119.73399501191261 L199.10270261237895,109.95649474771213 L200,100.00000000000009 " stroke-width="1" stroke="black" fill="none"></path></svg>