<svg height="16" width="16" viewBox="0 0 24 24" xmlns="http://www.w3.org/2000/svg"><path d="M17 22 L 19 22 C20.6569 22 22 20.6569 22 19 L22 7 L 22 5 C 22 3.3431 20.6569 2 19 2 L7 2 L5 2 C 3.3431 2 3 3.3431 2 5 L2 17 L2 19 C 2 20.6569 3.3431 22 5 22 L7 22 Z M24,16.1768671 L24,19 C24,21.7614237 21.7614237,24 19,24 L5,24 C2.23857625,24 2.11453371e-15,21.7614237 1.77635684e-15,19 L0,5 C-3.38176876e-16,2.23857625 2.23857625,2.28362215e-15 5,0 L19,0 C21.7614237,-5.07265313e-16 24,2.23857625 24,5 L24,7.82313285 C24.0122947,7.88054124 24.0187107,7.93964623 24.0187107,8 C24.0187107,8.06035377 24.0122947,8.11945876 24,8.17686715 L24,15.8231329 C24.0122947,15.8805412 24.0187107,15.9396462 24.0187107,16 C24.0187107,16.0603538 24.0122947,16.1194588 24,16.1768671 Z M19 7 H5 V10 H19 Z M19 14 H5 V17 H19 Z"/></svg>