<svg xmlns="http://www.w3.org/2000/svg" width="600" height="290.16" viewBox="0 0 502.484 243" style="background-color:#fff"><defs><style>.root text,.root tspan{font:12px Arial}.root circle,.root path{stroke-width:2px;stroke:#000}.root path{fill-opacity:0}.root circle{fill:#6b6659}.literal text{fill:#000}.literal rect{fill:#dae9e5}</style></defs><g transform="translate(15 10)" class="root"><g class="regexp match"><path d="M123.375 111.5h25m76.031 0h10m25.016 0h10"/><g class="match-fragment"><path d="M10 111.5q10 0 10-10v-1.75q0-10 10-10h88.375q10 0 10 10v1.75q0 10 10 10"/><g class="subexp regexp match"><path d="M88.36 111.5h10"/><g class="match-fragment literal"><g class="label" transform="translate(25 99.75)"><rect width="63.359" height="23.5" rx="3" ry="3"/><text transform="translate(5 16.75)"><tspan style="font-style:italic"> identifier</tspan></text></g></g><g class="match-fragment subexp regexp match literal"><g class="label" transform="translate(98.36 99.75)"><rect width="25.016" height="23.5" rx="3" ry="3"/><text transform="translate(5 16.75)"><tspan> =</tspan></text></g></g></g></g><g class="match-fragment literal"><g class="label" transform="translate(148.375 99.75)"><rect width="76.031" height="23.5" rx="3" ry="3"/><text transform="translate(5 16.75)"><tspan style="font-style:italic"> expression</tspan></text></g></g><g class="match-fragment subexp regexp match literal"><g class="label" transform="translate(234.406 99.75)"><rect width="25.016" height="23.5" rx="3" ry="3"/><text transform="translate(5 16.75)"><tspan> =</tspan></text></g></g><g class="match-fragment subexp regexp match"><path d="M351.781 111.5h25"/><g class="match-fragment subexp regexp"><path d="M279.422 21.75q0-10 10-10m52.36 10q0-10-10-10m-52.36 38.5q0-10 10-10m52.36 10q0-10-10-10m-52.36 38.5q0-10 10-10m52.36 10q0-10-10-10m-62.36 42.75c10 0 10-14.25 20-14.25m62.36 14.25c-10 0-10-14.25-20-14.25m-62.36 14.25c10 0 10 14.25 20 14.25m62.36-14.25c-10 0-10 14.25-20 14.25m-52.36 18.5q0 10 10 10m52.36-10q0 10-10 10m-52.36 18.5q0 10 10 10m52.36-10q0 10-10 10m-52.36 18.5q0 10 10 10m52.36-10q0 10-10 10m-62.36-99.75q10 0 10-10V21.75m72.36 89.75q-10 0-10-10V21.75m-72.36 89.75q10 0 10 10v79.75m72.36-89.75q-10 0-10 10v79.75"/><g class="regexp-matches"><path d="M289.422 11.75h8.844m24.672 0h8.843m-42.36 28.5h5.509m31.343 0h5.508m-42.36 28.5h6.845m28.672 0h6.843m-42.36 28.5h1.509m39.343 0h1.508m-42.36 28.5h6.087m30.187 0h6.086m-42.36 57h10.509m21.343 0h10.508m-42.36 28.5h8.845m24.672 0h8.843"/><g class="match match-fragment literal"><g class="label" transform="translate(298.266)"><rect width="24.672" height="23.5" rx="3" ry="3"/><text transform="translate(5 16.75)"><tspan> ?</tspan></text></g></g><g class="match match-fragment literal"><g class="label" transform="translate(294.93 28.5)"><rect width="31.344" height="23.5" rx="3" ry="3"/><text transform="translate(5 16.75)"><tspan> ??</tspan></text></g></g><g class="match match-fragment literal"><g class="label" transform="translate(296.266 57)"><rect width="28.672" height="23.5" rx="3" ry="3"/><text transform="translate(5 16.75)"><tspan> %</tspan></text></g></g><g class="match match-fragment literal"><g class="label" transform="translate(290.93 85.5)"><rect width="39.344" height="23.5" rx="3" ry="3"/><text transform="translate(5 16.75)"><tspan> %%</tspan></text></g></g><g class="match match-fragment literal"><g class="label" transform="translate(295.508 114)"><rect width="30.188" height="23.5" rx="3" ry="3"/><text transform="translate(5 16.75)"><tspan> @</tspan></text></g></g><g class="match match-fragment literal"><g class="label" transform="translate(289.422 142.5)"><rect width="42.359" height="23.5" rx="3" ry="3"/><text transform="translate(5 16.75)"><tspan> @@</tspan></text></g></g><g class="match match-fragment literal"><g class="label" transform="translate(299.93 171)"><rect width="21.344" height="23.5" rx="3" ry="3"/><text transform="translate(5 16.75)"><tspan> !</tspan></text></g></g><g class="match match-fragment literal"><g class="label" transform="translate(298.266 199.5)"><rect width="24.672" height="23.5" rx="3" ry="3"/><text transform="translate(5 16.75)"><tspan> !!</tspan></text></g></g></g></g><g class="match-fragment"><path d="M361.781 111.5q10 0 10-10v-1.75q0-10 10-10h60.703q10 0 10 10v1.75q0 10 10 10"/><g class="subexp regexp match match-fragment literal"><g class="label" transform="translate(376.781 99.75)"><rect width="70.703" height="23.5" rx="3" ry="3"/><text transform="translate(5 16.75)"><tspan style="font-style:italic"> unit name</tspan></text></g></g></g></g></g><path d="M25 111.5H0m447.484 0h25"/><circle cy="111.5" r="5"/><circle cx="472.484" cy="111.5" r="5"/></g></svg>