<svg xmlns="http://www.w3.org/2000/svg" width="600.484" height="169" style="background-color:#fff"><defs><style>.root text,.root tspan{font:12px Arial}.root circle,.root path{stroke-width:2px;stroke:#000}.root path{fill-opacity:0}.root circle{fill:#6b6659}.literal text{fill:#000}.literal rect{fill:#dae9e5}.quote{fill:#908c83}</style></defs><g class="root" transform="translate(15 10)"><g class="regexp match"><path d="M123.367 74.5h25m76.031 0h10m25.008 0h10m140.375 0h25"/><g class="match-fragment"><path d="M10 74.5q10 0 10-10v-1.75q0-10 10-10h88.367q10 0 10 10v1.75q0 10 10 10"/><g class="subexp regexp match"><path d="M88.36 74.5h10"/><g class="match-fragment literal"><g class="label" transform="translate(25 62.75)"><rect width="63.359" height="23.5" rx="3" ry="3"/><text transform="translate(5 16.75)"><tspan> identifier</tspan></text></g></g><g class="match-fragment subexp regexp match literal"><g class="label" transform="translate(98.36 62.75)"><rect width="25.008" height="23.5" rx="3" ry="3"/><text transform="translate(5 16.75)"><tspan> =</tspan></text></g></g></g></g><g class="match-fragment literal"><g class="label" transform="translate(148.367 62.75)"><rect width="76.031" height="23.5" rx="3" ry="3"/><text transform="translate(5 16.75)"><tspan> expression</tspan></text></g></g><g class="match-fragment subexp regexp match literal"><g class="label" transform="translate(234.399 62.75)"><rect width="25.008" height="23.5" rx="3" ry="3"/><text transform="translate(5 16.75)"><tspan> =</tspan></text></g></g><g class="match-fragment subexp regexp"><path d="M279.406 31.75q0-10 10-10m110.375 10q0-10-10-10M269.406 74.5c10 0 10-14.25 20-14.25M409.781 74.5c-10 0-10-14.25-20-14.25m-110.375 28.5q0 10 10 10m110.375-10q0 10-10 10m-110.375 28.5q0 10 10 10m110.375-10q0 10-10 10M269.406 74.5q10 0 10-10V31.75M409.781 74.5q-10 0-10-10V31.75M269.406 74.5q10 0 10 10v42.75M409.781 74.5q-10 0-10 10v42.75"/><g class="regexp-matches"><path d="M289.406 21.75h5.508m74.36 0h20.507m-100.375 38.5h1.516m82.344 0h16.515m-15 38.5h15m-100.375 38.5h8.852m67.672 0h23.851"/><g class="match"><path d="M319.594 21.75h25"/><g class="match-fragment literal"><g class="label" transform="translate(294.914 10)"><rect width="24.68" height="23.5" rx="3" ry="3"/><text transform="translate(5 16.75)"><tspan> ?</tspan></text></g></g><g class="match-fragment"><path d="M329.594 21.75q10 0 10-10V10q0-10 10-10h14.68q10 0 10 10v1.75q0 10 10 10"/><g class="literal"><g class="label" transform="translate(344.594 10)"><rect width="24.68" height="23.5" rx="3" ry="3"/><text transform="translate(5 16.75)"><tspan> ?</tspan></text></g></g></g></g><g class="match"><path d="M319.594 60.25h25"/><g class="match-fragment literal"><g class="label" transform="translate(290.922 48.5)"><rect width="28.672" height="23.5" rx="3" ry="3"/><text transform="translate(5 16.75)"><tspan> %</tspan></text></g></g><g class="match-fragment"><path d="M329.594 60.25q10 0 10-10V48.5q0-10 10-10h18.672q10 0 10 10v1.75q0 10 10 10"/><g class="literal"><g class="label" transform="translate(344.594 48.5)"><rect width="28.672" height="23.5" rx="3" ry="3"/><text transform="translate(5 16.75)"><tspan> %</tspan></text></g></g></g></g><g class="match"><path d="M319.594 98.75h25"/><g class="match-fragment literal"><g class="label" transform="translate(289.406 87)"><rect width="30.188" height="23.5" rx="3" ry="3"/><text transform="translate(5 16.75)"><tspan> @</tspan></text></g></g><g class="match-fragment"><path d="M329.594 98.75q10 0 10-10V87q0-10 10-10h20.187q10 0 10 10v1.75q0 10 10 10"/><g class="literal"><g class="label" transform="translate(344.594 87)"><rect width="30.188" height="23.5" rx="3" ry="3"/><text transform="translate(5 16.75)"><tspan> @</tspan></text></g></g></g></g><g class="match"><path d="M319.594 137.25h25"/><g class="match-fragment literal"><g class="label" transform="translate(298.258 125.5)"><rect width="21.336" height="23.5" rx="3" ry="3"/><text transform="translate(5 16.75)"><tspan> !</tspan></text></g></g><g class="match-fragment"><path d="M329.594 137.25q10 0 10-10v-1.75q0-10 10-10h11.336q10 0 10 10v1.75q0 10 10 10"/><g class="literal"><g class="label" transform="translate(344.594 125.5)"><rect width="21.336" height="23.5" rx="3" ry="3"/><text transform="translate(5 16.75)"><tspan> !</tspan></text></g></g></g></g></g></g><g class="match-fragment"><path d="M419.781 74.5q10 0 10-10v-16q0-10 10-10h100.703q10 0 10 10v16q0 10 10 10"/><g class="subexp regexp"><path d="M434.781 74.5c10 0 10-14.25 20-14.25m90.703 14.25c-10 0-10-14.25-20-14.25M434.781 74.5c10 0 10 14.25 20 14.25m90.703-14.25c-10 0-10 14.25-20 14.25"/><g class="regexp-matches"><path d="M454.781 88.75h21.016m28.672 0h21.015"/><g class="match match-fragment literal"><g class="label" transform="translate(454.781 48.5)"><rect width="70.703" height="23.5" rx="3" ry="3"/><text transform="translate(5 16.75)"><tspan> unit name</tspan></text></g></g><g class="match match-fragment literal"><g class="label" transform="translate(475.797 77)"><rect width="28.672" height="23.5" rx="3" ry="3"/><text transform="translate(5 16.75)"><tspan> %</tspan></text></g></g></g></g></g></g><path d="M25 74.5H0m545.484 0h25"/><circle cy="74.5" r="5"/><circle cx="570.484" cy="74.5" r="5"/></g></svg>