<svg xmlns="http://www.w3.org/2000/svg" width="600" height="180.9" viewBox="0 0 560.5 169" style="background-color:#fff"><defs><style>.root text,.root tspan{font:12px Arial}.root circle,.root path{stroke-width:2px;stroke:#000}.root path{fill-opacity:0}.root circle{fill:#6b6659}.literal text{fill:#000}.literal rect{fill:#dae9e5}</style></defs><g transform="translate(15 10)" class="root"><g class="regexp match"><path d="M123.375 74.5h25m76.031 0h10m25.016 0h10"/><g class="match-fragment"><path d="M10 74.5q10 0 10-10v-1.75q0-10 10-10h88.375q10 0 10 10v1.75q0 10 10 10"/><g class="subexp regexp match"><path d="M88.36 74.5h10"/><g class="match-fragment literal"><g class="label" transform="translate(25 62.75)"><rect width="63.359" height="23.5" rx="3" ry="3"/><text transform="translate(5 16.75)"><tspan style="font-style:italic"> identifier</tspan></text></g></g><g class="match-fragment subexp regexp match literal"><g class="label" transform="translate(98.36 62.75)"><rect width="25.016" height="23.5" rx="3" ry="3"/><text transform="translate(5 16.75)"><tspan> =</tspan></text></g></g></g></g><g class="match-fragment literal"><g class="label" transform="translate(148.375 62.75)"><rect width="76.031" height="23.5" rx="3" ry="3"/><text transform="translate(5 16.75)"><tspan style="font-style:italic"> expression</tspan></text></g></g><g class="match-fragment subexp regexp match literal"><g class="label" transform="translate(234.406 62.75)"><rect width="25.016" height="23.5" rx="3" ry="3"/><text transform="translate(5 16.75)"><tspan> =</tspan></text></g></g><g class="match-fragment subexp regexp match"><path d="M409.797 74.5h25"/><g class="match-fragment subexp regexp"><path d="M279.422 31.75q0-10 10-10m110.375 10q0-10-10-10M269.422 74.5c10 0 10-14.25 20-14.25M409.797 74.5c-10 0-10-14.25-20-14.25m-110.375 28.5q0 10 10 10m110.375-10q0 10-10 10m-110.375 28.5q0 10 10 10m110.375-10q0 10-10 10M269.422 74.5q10 0 10-10V31.75M409.797 74.5q-10 0-10-10V31.75M269.422 74.5q10 0 10 10v42.75M409.797 74.5q-10 0-10 10v42.75"/><g class="regexp-matches"><path d="M289.422 21.75h5.515m74.344 0h20.516m-100.375 38.5h1.515m82.344 0h16.516m-15 38.5h15m-100.375 38.5h8.844m67.687 0h23.844"/><g class="match"><path d="M319.61 21.75h25"/><g class="match-fragment literal"><g class="label" transform="translate(294.938 10)"><rect width="24.672" height="23.5" rx="3" ry="3"/><text transform="translate(5 16.75)"><tspan> ?</tspan></text></g></g><g class="match-fragment"><path d="M329.61 21.75q10 0 10-10V10q0-10 10-10h14.671q10 0 10 10v1.75q0 10 10 10"/><g class="literal"><g class="label" transform="translate(344.61 10)"><rect width="24.672" height="23.5" rx="3" ry="3"/><text transform="translate(5 16.75)"><tspan> ?</tspan></text></g></g></g></g><g class="match"><path d="M319.61 60.25h25"/><g class="match-fragment literal"><g class="label" transform="translate(290.938 48.5)"><rect width="28.672" height="23.5" rx="3" ry="3"/><text transform="translate(5 16.75)"><tspan> %</tspan></text></g></g><g class="match-fragment"><path d="M329.61 60.25q10 0 10-10V48.5q0-10 10-10h18.671q10 0 10 10v1.75q0 10 10 10"/><g class="literal"><g class="label" transform="translate(344.61 48.5)"><rect width="28.672" height="23.5" rx="3" ry="3"/><text transform="translate(5 16.75)"><tspan> %</tspan></text></g></g></g></g><g class="match"><path d="M319.61 98.75h25"/><g class="match-fragment literal"><g class="label" transform="translate(289.422 87)"><rect width="30.188" height="23.5" rx="3" ry="3"/><text transform="translate(5 16.75)"><tspan> @</tspan></text></g></g><g class="match-fragment"><path d="M329.61 98.75q10 0 10-10V87q0-10 10-10h20.187q10 0 10 10v1.75q0 10 10 10"/><g class="literal"><g class="label" transform="translate(344.61 87)"><rect width="30.188" height="23.5" rx="3" ry="3"/><text transform="translate(5 16.75)"><tspan> @</tspan></text></g></g></g></g><g class="match"><path d="M319.61 137.25h25"/><g class="match-fragment literal"><g class="label" transform="translate(298.266 125.5)"><rect width="21.344" height="23.5" rx="3" ry="3"/><text transform="translate(5 16.75)"><tspan> !</tspan></text></g></g><g class="match-fragment"><path d="M329.61 137.25q10 0 10-10v-1.75q0-10 10-10h11.343q10 0 10 10v1.75q0 10 10 10"/><g class="literal"><g class="label" transform="translate(344.61 125.5)"><rect width="21.344" height="23.5" rx="3" ry="3"/><text transform="translate(5 16.75)"><tspan> !</tspan></text></g></g></g></g></g></g><g class="match-fragment"><path d="M419.797 74.5q10 0 10-10v-1.75q0-10 10-10H500.5q10 0 10 10v1.75q0 10 10 10"/><g class="subexp regexp match match-fragment literal"><g class="label" transform="translate(434.797 62.75)"><rect width="70.703" height="23.5" rx="3" ry="3"/><text transform="translate(5 16.75)"><tspan style="font-style:italic"> unit name</tspan></text></g></g></g></g></g><path d="M25 74.5H0m505.5 0h25"/><circle cy="74.5" r="5"/><circle cx="530.5" cy="74.5" r="5"/></g></svg>