<svg xmlns="http://www.w3.org/2000/svg" width="750" height="277.6" viewBox="0 0 656.5 243" style="background-color:#fff"><defs><style>.root text,.root tspan{font:12px Arial}.root circle,.root path{stroke-width:2px;stroke:#000}.root path{fill-opacity:0}.root circle{fill:#6b6659}.literal text{fill:#000}.literal rect{fill:#dae9e5}</style></defs><g transform="translate(15 10)" class="root"><g class="regexp match"><path d="M123.375 111.5h25m76.031 0h10m25.016 0h25m74.016 0h25"/><g class="match-fragment"><path d="M10 111.5q10 0 10-10v-1.75q0-10 10-10h88.375q10 0 10 10v1.75q0 10 10 10"/><g class="subexp regexp match"><path d="M88.36 111.5h10"/><g class="match-fragment literal"><g class="label" transform="translate(25 99.75)"><rect width="63.359" height="23.5" rx="3" ry="3"/><text transform="translate(5 16.75)"><tspan style="font-style:italic"> identifier</tspan></text></g></g><g class="match-fragment subexp regexp match literal"><g class="label" transform="translate(98.36 99.75)"><rect width="25.016" height="23.5" rx="3" ry="3"/><text transform="translate(5 16.75)"><tspan> =</tspan></text></g></g></g></g><g class="match-fragment literal"><g class="label" transform="translate(148.375 99.75)"><rect width="76.031" height="23.5" rx="3" ry="3"/><text transform="translate(5 16.75)"><tspan style="font-style:italic"> expression</tspan></text></g></g><g class="match-fragment subexp regexp match literal"><g class="label" transform="translate(234.406 99.75)"><rect width="25.016" height="23.5" rx="3" ry="3"/><text transform="translate(5 16.75)"><tspan> =</tspan></text></g></g><g class="match-fragment"><path d="M269.422 111.5q10 0 10-10V42.75q0-10 10-10h64.016q10 0 10 10v58.75q0 10 10 10"/><g class="subexp regexp"><path d="M294.422 64.5q0-10 10-10m44.016 10q0-10-10-10M294.422 93q0-10 10-10m44.016 10q0-10-10-10m-54.016 28.5h20m54.016 0h-20M294.422 130q0 10 10 10m44.016-10q0 10-10 10m-44.016 18.5q0 10 10 10m44.016-10q0 10-10 10m-54.016-57q10 0 10-10v-37m64.016 47q-10 0-10-10v-37m-64.016 47q10 0 10 10v37m64.016-47q-10 0-10 10v37"/><g class="regexp-matches"><path d="M304.422 54.5h4.672m24.672 0h4.672M304.422 83h4.672m24.672 0h4.672m-34.016 28.5h4.672m24.672 0h4.672M304.422 140h4.672m24.672 0h4.672m0 28.5"/><g class="match match-fragment literal"><g class="label" transform="translate(309.094 42.75)"><rect width="24.672" height="23.5" rx="3" ry="3"/><text transform="translate(5 16.75)"><tspan> $</tspan></text></g></g><g class="match match-fragment literal"><g class="label" transform="translate(309.094 71.25)"><rect width="24.672" height="23.5" rx="3" ry="3"/><text transform="translate(5 16.75)"><tspan> £</tspan></text></g></g><g class="match match-fragment literal"><g class="label" transform="translate(309.094 99.75)"><rect width="24.672" height="23.5" rx="3" ry="3"/><text transform="translate(5 16.75)"><tspan> ¥</tspan></text></g></g><g class="match match-fragment literal"><g class="label" transform="translate(309.094 128.25)"><rect width="24.672" height="23.5" rx="3" ry="3"/><text transform="translate(5 16.75)"><tspan> €</tspan></text></g></g><g class="match match-fragment literal"><g class="label" transform="translate(304.422 156.75)"><rect width="34.016" height="23.5" rx="3" ry="3"/><text transform="translate(5 16.75)"><tspan> etc</tspan></text></g></g></g></g></g><g class="match-fragment subexp regexp"><path d="M393.438 93q0-10 10-10M606.5 93q0-10-10-10M393.437 187q0 10 10 10M606.5 187q0 10-10 10m-213.063-85.5q10 0 10-10V93M616.5 111.5q-10 0-10-10V93m-223.063 18.5q10 0 10 10V187M616.5 111.5q-10 0-10 10V187"/><g class="regexp-matches"><path d="M581.5 83h15M403.437 197h64.196m64.672 0H596.5"/><g class="match"><path d="M485.797 83h25"/><g class="match-fragment subexp regexp"><path d="M413.438 21.75q0-10 10-10m52.359 10q0-10-10-10m-52.36 38.5q0-10 10-10m52.36 10q0-10-10-10M403.437 83c10 0 10-14.25 20-14.25M485.798 83c-10 0-10-14.25-20-14.25M403.437 83c10 0 10 14.25 20 14.25M485.798 83c-10 0-10 14.25-20 14.25m-52.36 18.5q0 10 10 10m52.36-10q0 10-10 10m-52.36 18.5q0 10 10 10m52.36-10q0 10-10 10M403.437 83q10 0 10-10V21.75M485.798 83q-10 0-10-10V21.75M403.437 83q10 0 10 10v51.25M485.798 83q-10 0-10 10v51.25"/><g class="regexp-matches"><path d="M423.438 11.75h8.843m24.672 0h8.844m-42.36 28.5h5.508m31.344 0h5.508m-42.36 28.5h6.844m28.672 0h6.844m-42.36 28.5h1.508m39.344 0h1.508m-42.36 28.5h6.086m30.188 0h6.086m0 28.5"/><g class="match match-fragment literal"><g class="label" transform="translate(432.281)"><rect width="24.672" height="23.5" rx="3" ry="3"/><text transform="translate(5 16.75)"><tspan> ?</tspan></text></g></g><g class="match match-fragment literal"><g class="label" transform="translate(428.945 28.5)"><rect width="31.344" height="23.5" rx="3" ry="3"/><text transform="translate(5 16.75)"><tspan> ??</tspan></text></g></g><g class="match match-fragment literal"><g class="label" transform="translate(430.281 57)"><rect width="28.672" height="23.5" rx="3" ry="3"/><text transform="translate(5 16.75)"><tspan> %</tspan></text></g></g><g class="match match-fragment literal"><g class="label" transform="translate(424.945 85.5)"><rect width="39.344" height="23.5" rx="3" ry="3"/><text transform="translate(5 16.75)"><tspan> %%</tspan></text></g></g><g class="match match-fragment literal"><g class="label" transform="translate(429.523 114)"><rect width="30.188" height="23.5" rx="3" ry="3"/><text transform="translate(5 16.75)"><tspan> @</tspan></text></g></g><g class="match match-fragment literal"><g class="label" transform="translate(423.438 142.5)"><rect width="42.359" height="23.5" rx="3" ry="3"/><text transform="translate(5 16.75)"><tspan> @@</tspan></text></g></g></g></g><g class="match-fragment"><path d="M495.797 83q10 0 10-10v-1.75q0-10 10-10H576.5q10 0 10 10V73q0 10 10 10"/><g class="subexp regexp match match-fragment literal"><g class="label" transform="translate(510.797 71.25)"><rect width="70.703" height="23.5" rx="3" ry="3"/><text transform="translate(5 16.75)"><tspan style="font-style:italic"> unit name</tspan></text></g></g></g></g><g class="match match-fragment subexp regexp"><path d="M467.633 197c10 0 10-14.25 20-14.25M532.305 197c-10 0-10-14.25-20-14.25M467.633 197c10 0 10 14.25 20 14.25M532.305 197c-10 0-10 14.25-20 14.25"/><g class="regexp-matches"><path d="M487.633 182.75h1.664m21.344 0h1.664m0 28.5"/><g class="match match-fragment literal"><g class="label" transform="translate(489.297 171)"><rect width="21.344" height="23.5" rx="3" ry="3"/><text transform="translate(5 16.75)"><tspan> !</tspan></text></g></g><g class="match match-fragment literal"><g class="label" transform="translate(487.633 199.5)"><rect width="24.672" height="23.5" rx="3" ry="3"/><text transform="translate(5 16.75)"><tspan> !!</tspan></text></g></g></g></g></g></g></g><path d="M25 111.5H0m616.5 0h10"/><circle cy="111.5" r="5"/><circle cx="626.5" cy="111.5" r="5"/></g></svg>