<svg xmlns="http://www.w3.org/2000/svg" width="509.313" height="157.5" style="background-color:#fff"><defs><style>.root text,.root tspan{font:12px Arial}.root circle,.root path{stroke-width:2px;stroke:#000}.root path{fill-opacity:0}.root circle{fill:#6b6659}.literal text{fill:#000}.literal rect{fill:#dae9e5}.quote{fill:#908c83}</style></defs><g class="root" transform="translate(15 10)"><g class="regexp match match-fragment subexp"><path d="M10 68.75c10 0 10-14.25 20-14.25m439.313 14.25c-10 0-10-14.25-20-14.25M20 115.75q0 10 10 10m429.313-10q0 10-10 10M10 68.75q10 0 10 10v37m449.313-47q-10 0-10 10v37"/><g class="regexp-matches"><path d="M30 125.75h86.27m246.773 0h86.27"/><g class="match"><path d="M166.68 54.5h10"/><g class="match-fragment subexp regexp"><path d="M40 36q0-10 10-10m106.68 10q0-10-10-10M30 54.5h20m116.68 0h-20M40 73q0 10 10 10m106.68-10q0 10-10 10M30 54.5q10 0 10-10V36m126.68 18.5q-10 0-10-10V36M30 54.5q10 0 10 10V73m126.68-18.5q-10 0-10 10V73"/><g class="regexp-matches"><path d="M50 26h18.996m58.688 0h18.996M50 83h4.66m87.36 0h4.66"/><g class="match match-fragment literal"><g class="label" transform="translate(68.996 14.25)"><rect width="58.688" height="23.5" rx="3" ry="3"/><text transform="translate(5 16.75)"> <tspan style="font-style:italic"> number</tspan> </text></g></g><g class="match match-fragment literal"><g class="label" transform="translate(50 42.75)"><rect width="96.68" height="23.5" rx="3" ry="3"/><text transform="translate(5 16.75)"> <tspan style="font-style:italic"> numeric matrix</tspan> </text></g></g><g class="match match-fragment literal"><g class="label" transform="translate(54.66 71.25)"><rect width="87.359" height="23.5" rx="3" ry="3"/><text transform="translate(5 16.75)"> <tspan style="font-style:italic"> numeric map</tspan> </text></g></g></g></g><g class="match-fragment subexp regexp"><path d="M186.68 21.75q0-10 10-10m242.632 10q0-10-10-10M176.68 54.5c10 0 10 14.25 20 14.25M449.312 54.5c-10 0-10 14.25-20 14.25M176.68 54.5q10 0 10-10V21.75M449.312 54.5q-10 0-10-10V21.75"/><g class="regexp-matches"><path d="M196.68 11.75h81.636m69.36 0h81.636m-232.632 57h15m217.632 0"/><g class="match match-fragment literal"><g class="label" transform="translate(278.316)"><rect width="69.359" height="23.5" rx="3" ry="3"/><text transform="translate(5 16.75)"> <tspan style="font-style:italic"> unitName</tspan> </text></g></g><g class="match"><path d="M233.016 68.75h25"/><g class="match-fragment"><path d="M196.68 68.75q10 0 10-10V57q0-10 10-10h11.336q10 0 10 10v1.75q0 10 10 10"/><g class="literal"><g class="label" transform="translate(211.68 57)"><rect width="21.336" height="23.5" rx="3" ry="3"/><text transform="translate(5 16.75)"> <tspan class="quote">“</tspan> <tspan class="quote">”</tspan> </text></g></g></g><g class="match-fragment subexp regexp"><path d="M268.016 50.25q0-10 10-10m141.296 10q0-10-10-10m-151.296 28.5h20m151.296 0h-20m-141.296 18.5q0 10 10 10m141.296-10q0 10-10 10m-151.296-28.5q10 0 10-10v-8.5m161.296 18.5q-10 0-10-10v-8.5m-161.296 18.5q10 0 10 10v8.5m161.296-18.5q-10 0-10 10v8.5"/><g class="regexp-matches"><path d="M278.016 68.75h54.246m22.804 0h54.246m-131.296 28.5h52.644m26.008 0h52.644"/><g class="match"><path d="M298.312 40.25h10m70.704 0h10"/><g class="match-fragment subexp regexp match literal"><g class="label" transform="translate(278.016 28.5)"><rect width="20.297" height="23.5" rx="3" ry="3"/><text transform="translate(5 16.75)"> <tspan style="font-weight:700"> &apos;</tspan> </text></g></g><g class="match-fragment literal"><g class="label" transform="translate(308.313 28.5)"><rect width="70.703" height="23.5" rx="3" ry="3"/><text transform="translate(5 16.75)"> <tspan style="font-style:italic"> unit name</tspan> </text></g></g><g class="match-fragment subexp regexp match literal"><g class="label" transform="translate(389.016 28.5)"><rect width="20.297" height="23.5" rx="3" ry="3"/><text transform="translate(5 16.75)"> <tspan style="font-weight:700"> &apos;</tspan> </text></g></g></g><g class="match match-fragment literal"><g class="label" transform="translate(332.262 57)"><rect width="22.805" height="23.5" rx="3" ry="3"/><text transform="translate(5 16.75)"> <tspan style="font-weight:700"> °</tspan> </text></g></g><g class="match match-fragment literal"><g class="label" transform="translate(330.66 85.5)"><rect width="26.008" height="23.5" rx="3" ry="3"/><text transform="translate(5 16.75)"> <tspan> Å</tspan> </text></g></g></g></g></g></g></g></g><g class="match"><path d="M221.629 125.75h10"/><g class="match-fragment literal"><g class="label" transform="translate(116.27 114)"><rect width="105.359" height="23.5" rx="3" ry="3"/><text transform="translate(5 16.75)"> <tspan style="font-style:italic"> currency symbol</tspan> </text></g></g><g class="match-fragment subexp regexp match literal"><g class="label" transform="translate(231.629 114)"><rect width="131.414" height="23.5" rx="3" ry="3"/><text transform="translate(5 16.75)"> <tspan style="font-style:italic"> non-negative number</tspan> </text></g></g></g></g></g><path d="M10 68.75H0m469.313 0h10"/><circle cy="68.75" r="5"/><circle cx="479.313" cy="68.75" r="5"/></g></svg>