<svg xmlns="http://www.w3.org/2000/svg" width="525" height="196.3" viewBox="0 0 427.977 160" style="background-color:#fff"><defs><style>.root text,.root tspan{font:12px Arial}.root circle,.root path{stroke-width:2px;stroke:#000}.root path{fill-opacity:0}.root circle{fill:#6b6659}.literal text{fill:#000}.literal rect{fill:#dae9e5}</style></defs><g transform="translate(15 10)" class="root"><g class="regexp match match-fragment subexp"><path d="M10 70c10 0 10-8.75 20-8.75M387.977 70c-10 0-10-8.75-20-8.75M20 118.25q0 10 10 10m347.977-10q0 10-10 10M10 70q10 0 10 10v38.25M387.977 70q-10 0-10 10v38.25"/><g class="regexp-matches"><path d="M30 61.25h10m-10 67h45.602m246.773 0h45.602"/><g class="match"><path d="M176.68 61.25h20"/><g class="match-fragment subexp"><g class="regexp"><path d="M50 42.75q0-10 10-10m106.68 10q0-10-10-10M40 61.25h20m116.68 0h-20M50 79.75q0 10 10 10m106.68-10q0 10-10 10M40 61.25q10 0 10-10v-8.5m126.68 18.5q-10 0-10-10v-8.5M40 61.25q10 0 10 10v8.5m126.68-18.5q-10 0-10 10v8.5"/><g class="regexp-matches"><path d="M60 32.75h18.996m58.688 0h18.996M60 89.75h4.66m87.36 0h4.66"/><g class="match match-fragment literal"><g class="label" transform="translate(78.996 21)"><rect width="58.688" height="23.5" rx="3" ry="3"/><text transform="translate(5 16.75)"><tspan style="font-style:italic"> number</tspan></text></g></g><g class="match match-fragment literal"><g class="label" transform="translate(60 49.5)"><rect width="96.68" height="23.5" rx="3" ry="3"/><text transform="translate(5 16.75)"><tspan style="font-style:italic"> numeric matrix</tspan></text></g></g><g class="match match-fragment literal"><g class="label" transform="translate(64.66 78)"><rect width="87.359" height="23.5" rx="3" ry="3"/><text transform="translate(5 16.75)"><tspan style="font-style:italic"> numeric map</tspan></text></g></g></g></g></g><g class="match-fragment subexp regexp"><path d="M206.68 42.75q0-10 10-10m141.297 10q0-10-10-10M196.68 61.25h20m151.297 0h-20M206.68 79.75q0 10 10 10m141.297-10q0 10-10 10M196.68 61.25q10 0 10-10v-8.5m161.297 18.5q-10 0-10-10v-8.5M196.68 61.25q10 0 10 10v8.5m161.297-18.5q-10 0-10 10v8.5"/><g class="regexp-matches"><path d="M216.68 61.25h54.246m22.804 0h54.247M216.68 89.75h52.644m26.008 0h52.645"/><g class="match"><path d="M236.977 32.75h10m70.703 0h10"/><g class="match-fragment subexp regexp match literal"><g class="label" transform="translate(216.68 21)"><rect width="20.297" height="23.5" rx="3" ry="3"/><text transform="translate(5 16.75)"><tspan style="font-weight:700"> &apos;</tspan></text></g></g><g class="match-fragment literal"><g class="label" transform="translate(246.977 21)"><rect width="70.703" height="23.5" rx="3" ry="3"/><text transform="translate(5 16.75)"><tspan style="font-style:italic"> unit name</tspan></text></g></g><g class="match-fragment subexp regexp match literal"><g class="label" transform="translate(327.68 21)"><rect width="20.297" height="23.5" rx="3" ry="3"/><text transform="translate(5 16.75)"><tspan style="font-weight:700"> &apos;</tspan></text></g></g></g><g class="match match-fragment literal"><g class="label" transform="translate(270.926 49.5)"><rect width="22.805" height="23.5" rx="3" ry="3"/><text transform="translate(5 16.75)"><tspan style="font-weight:700"> °</tspan></text></g></g><g class="match match-fragment literal"><g class="label" transform="translate(269.324 78)"><rect width="26.008" height="23.5" rx="3" ry="3"/><text transform="translate(5 16.75)"><tspan> Å</tspan></text></g></g></g></g></g><g class="match"><path d="M180.96 128.25h10"/><g class="match-fragment literal"><g class="label" transform="translate(75.602 116.5)"><rect width="105.359" height="23.5" rx="3" ry="3"/><text transform="translate(5 16.75)"><tspan style="font-style:italic"> currency symbol</tspan></text></g></g><g class="match-fragment subexp regexp match literal"><g class="label" transform="translate(190.96 116.5)"><rect width="131.414" height="23.5" rx="3" ry="3"/><text transform="translate(5 16.75)"><tspan style="font-style:italic"> non-negative number</tspan></text></g></g></g></g></g><path d="M10 70H0m387.977 0h10"/><circle cy="70" r="5"/><circle cx="397.977" cy="70" r="5"/></g></svg>