<svg xmlns="http://www.w3.org/2000/svg" width="512" height="512" viewBox="0 0 778 778"><path d="M433 683h318c7.333-4.667 11-10.333 11-17 0-4.667-1.667-8.333-5-11-4-4.667-15-7-33-7-26.667-2-42.333-7.333-47-16-1.333-4-2-101-2-291 0-189.333.667-285.667 2-289 4.667-9.333 20.333-15 47-17 17.333 0 28.333-2.333 33-7 3.333-3.333 5-7.333 5-12 0-6.667-3.667-12.333-11-17H433l-7 4c-7.333 9.333-7.333 17.667 0 25 6 4.667 17 7 33 7 28 2 43.667 7.667 47 17 3.333 8 5 54 5 138v133H266V190c0-86.667 1.667-132.667 5-138 3.333-9.333 18.667-15 46-17 16.667 0 28-2.333 34-7 6-7.333 6-15.667 0-25l-7-4H26l-7 4c-3.333 4.667-5 9-5 13 0 3.333 1.667 7.333 5 12 6 4.667 17.333 7 34 7 27.333 2 42.667 7.667 46 17 3.333 5.333 5 101.667 5 289s-1.667 284.333-5 291c-4 8.667-19.333 14-46 16-18 0-29.333 2.333-34 7-3.333 3.333-5 7-5 11s1.667 8.333 5 13l7 4h318l7-4c6.667-9.333 6.667-17.333 0-24-4.667-4.667-16-7-34-7-20-2-31.667-4.333-35-7-8-2.667-12.333-8.833-13-18.5-.667-9.667-1.667-51.5-3-125.5V370h245v127c0 14.667-.333 33.333-1 56-.667 41.333-1.667 65.833-3 73.5-1.333 7.667-5 12.5-11 14.5h-1c-4 2.667-16 5-36 7-17.333 0-28.333 2.333-33 7-7.333 6.667-7.333 14.667 0 24l7 4Zm-198-44 4 9H131l4-9c2.667-9.333 4-108.667 4-298s-1.333-288.667-4-298l-4-8h108l-4 8c-1.333 4.667-2 104-2 298s.667 293.333 2 298Zm404-298c0 46.667-.167 95-.5 145-.333 50-.5 78.667-.5 86 0 38 2.667 63.333 8 76H537l5-9c2.667-9.333 4-108.667 4-298s-1.333-288.667-4-298l-5-8h109l-4 8c-2 4.667-3 104-3 298Z"/></svg>